#N canvas 442 223 1322 771 10;
#X obj 611 196 unpack s f;
#X obj 611 306 soundfiler;
#X obj 611 222 t s b;
#X obj 667 221 symbol \$0-sample;
#X obj 611 257 pack s s;
#X msg 611 282 read -resize \$1 \$2;
#X obj 666 168 44100;
#X obj 611 169 t a b;
#X obj 621 330 s \$0-samplength;
#X obj 708 196 s \$0-insamprate;
#X obj 611 369 /;
#X obj 649 369 r \$0-insamprate;
#X obj 611 145 r \$0-read-sample;
#X obj 611 404 s \$0-playbackLength;
#X obj 368 9 inlet;
#X obj 368 60 s \$0-read-sample;
#X obj 178 153 inlet;
#X obj 178 175 filterzero;
#X obj 33 305 outlet~;
#X obj 368 36 route sample;
#X obj 291 36 s \$0-option;
#X obj 138 251 r \$0-option;
#X obj 892 122 r \$0-samplength;
#X msg 992 143 length \$1;
#X obj 992 166 s \$0-option;
#X obj 992 122 r \$0-playbackLength;
#X obj 892 166 s \$0-option;
#X text 892 102 route parameters to internals;
#X msg 892 144 samplength \$1;
#X obj 611 118 table \$0-sample;
#X obj 1125 145 f \$0;
#X obj 1125 191 s \$0-option;
#X msg 1125 168 parent \$1;
#X obj 1125 122 loadbang;
#X obj 178 199 toggleout;
#X obj 334 251 r \$0-option;
#X obj 229 273 instrumentinternal;
#X obj 33 273 instrumentinternal;
#X msg 100 252 kill;
#X msg 315 224 kill;
#X connect 0 0 2 0;
#X connect 0 1 9 0;
#X connect 1 0 8 0;
#X connect 1 0 10 0;
#X connect 2 0 4 0;
#X connect 2 1 3 0;
#X connect 3 0 4 1;
#X connect 4 0 5 0;
#X connect 5 0 1 0;
#X connect 6 0 9 0;
#X connect 7 0 0 0;
#X connect 7 1 6 0;
#X connect 10 0 13 0;
#X connect 11 0 10 1;
#X connect 12 0 7 0;
#X connect 14 0 19 0;
#X connect 14 0 20 0;
#X connect 16 0 17 0;
#X connect 17 0 34 0;
#X connect 19 0 15 0;
#X connect 21 0 37 1;
#X connect 22 0 28 0;
#X connect 23 0 24 0;
#X connect 25 0 23 0;
#X connect 28 0 26 0;
#X connect 30 0 32 0;
#X connect 32 0 31 0;
#X connect 33 0 30 0;
#X connect 34 0 37 0;
#X connect 34 0 39 0;
#X connect 34 1 36 0;
#X connect 34 1 38 0;
#X connect 35 0 36 1;
#X connect 36 0 18 0;
#X connect 37 0 18 0;
#X connect 38 0 37 1;
#X connect 39 0 36 1;
