#N canvas 413 243 934 695 10;
#N canvas 0 22 450 300 (subpatch) 0;
#X array \$0-sample 376137 float 0;
#X coords 0 1 376136 -1 400 150 1;
#X restore 661 64 graph;
#X obj 462 117 unpack s f;
#X obj 462 227 soundfiler;
#X obj 462 143 t s b;
#X obj 518 142 symbol \$0-sample;
#X obj 462 178 pack s s;
#X msg 462 203 read -resize \$1 \$2;
#X obj 517 89 44100;
#X obj 462 90 t a b;
#X obj 472 251 s \$0-samplength;
#X obj 559 117 s \$0-insamprate;
#X obj 462 290 /;
#X obj 500 290 r \$0-insamprate;
#X obj 462 66 r \$0-read-sample;
#X obj 462 325 s \$0-playbackLength;
#X obj 341 -21 inlet;
#X obj 243 35 s \$0-read-sample;
#X obj 34 -10 inlet;
#X obj 57 512 tabread4~ \$0-sample;
#X obj 57 488 *~;
#X obj 72 465 r \$0-samplength;
#X obj 57 441 vline~;
#X msg 57 416 0 0 \, 1 \$1;
#X obj 57 392 f;
#X obj 108 339 r \$0-playbackLength;
#X obj 108 364 * 1000;
#X obj 58 722 outlet~;
#X obj 34 81 bng 15 250 50 0 empty empty empty 17 7 0 10 -262144 -1
-1;
#X obj 58 595 soundtouch~;
#X obj 353 35 s \$0-mode;
#X obj 61 38 s \$0-valueIn;
#X obj 58 648 *~;
#X obj 34 103 float;
#X obj 61 81 r \$0-mode;
#X text 48 130 sound if mode 1 or 2;
#X obj 34 150 select 0 1 2;
#X obj 73 623 r \$0-vol;
#X obj 466 434 r \$0-mode;
#X obj 466 507 s \$0-vol;
#X msg 466 484 1;
#X msg 565 484 1;
#X obj 565 507 s \$0-pitch;
#X obj 466 459 select 1 2;
#X obj 121 571 r \$0-pitch;
#X obj 57 233 float;
#X obj 183 204 float;
#X obj 84 204 r \$0-valueIn;
#X obj 210 177 r \$0-valueIn;
#X text 543 431 if mode 1 \, set the default volume to 1 if mode 2
\, set the default pitch to 1;
#X obj 183 243 t f f;
#X obj 57 263 t f f;
#X obj 210 269 s \$0-pitch;
#X obj 84 290 s \$0-vol;
#X obj 34 15 t f f;
#X obj 57 355 bng 15 250 50 0 empty empty empty 17 7 0 10 -262144 -1
-1;
#X obj 341 6 route sample mode volume;
#X obj 421 36 s \$0-masterVol;
#X obj 58 697 *~;
#X obj 73 673 r \$0-masterVol;
#X obj 466 548 loadbang;
#X obj 466 593 s \$0-masterVol;
#X msg 466 571 1;
#X text 563 547 set default master volume;
#X obj 468 623 loadbang;
#X obj 468 667 s \$0-mode;
#X msg 468 645 0;
#X text 564 625 set default mode;
#X obj 702 626 loadbang;
#X obj 667 678 s \$0-vol;
#X obj 723 678 s \$0-pitch;
#X msg 702 649 1;
#X text 762 627 set default values;
#X connect 1 0 3 0;
#X connect 1 1 10 0;
#X connect 2 0 9 0;
#X connect 2 0 11 0;
#X connect 3 0 5 0;
#X connect 3 1 4 0;
#X connect 4 0 5 1;
#X connect 5 0 6 0;
#X connect 6 0 2 0;
#X connect 7 0 10 0;
#X connect 8 0 1 0;
#X connect 8 1 7 0;
#X connect 11 0 14 0;
#X connect 12 0 11 1;
#X connect 13 0 8 0;
#X connect 15 0 55 0;
#X connect 17 0 53 0;
#X connect 18 0 28 0;
#X connect 19 0 18 0;
#X connect 20 0 19 1;
#X connect 21 0 19 0;
#X connect 22 0 21 0;
#X connect 23 0 22 0;
#X connect 24 0 25 0;
#X connect 25 0 23 1;
#X connect 27 0 32 0;
#X connect 28 0 31 0;
#X connect 31 0 57 0;
#X connect 32 0 35 0;
#X connect 33 0 32 1;
#X connect 35 1 44 0;
#X connect 35 2 45 0;
#X connect 36 0 31 1;
#X connect 37 0 42 0;
#X connect 39 0 38 0;
#X connect 40 0 41 0;
#X connect 42 0 39 0;
#X connect 42 1 40 0;
#X connect 43 0 28 1;
#X connect 44 0 50 0;
#X connect 45 0 49 0;
#X connect 46 0 44 1;
#X connect 47 0 45 1;
#X connect 49 0 54 0;
#X connect 49 1 51 0;
#X connect 50 0 54 0;
#X connect 50 1 52 0;
#X connect 53 0 27 0;
#X connect 53 1 30 0;
#X connect 54 0 23 0;
#X connect 55 0 16 0;
#X connect 55 1 29 0;
#X connect 55 2 56 0;
#X connect 57 0 26 0;
#X connect 58 0 57 1;
#X connect 59 0 61 0;
#X connect 61 0 60 0;
#X connect 63 0 65 0;
#X connect 65 0 64 0;
#X connect 67 0 70 0;
#X connect 70 0 68 0;
#X connect 70 0 69 0;
