#N canvas 683 0 650 680 10;
#X obj 309 88 inlet;
#X obj 309 112 route numInstruments length;
#X obj 268 406 r \$0-length;
#X obj 343 407 r \$0-numInstruments;
#X obj 268 455 *;
#X obj 280 431 t b f;
#X msg 321 502 resize \$1;
#X msg 268 502 const 0;
#X obj 12 9 inlet;
#X obj 12 144 float;
#X obj 12 264 until;
#X obj 40 88 s \$0-progress;
#X obj 40 59 mod;
#X obj 55 34 r \$0-length;
#X obj 12 34 t b f;
#X obj 12 177 t b b;
#X obj 100 238 loadbang;
#X obj 42 343 select;
#X obj 42 371 s break;
#X obj 163 238 r break;
#X obj 39 238 r break;
#X obj 12 471 *;
#X obj 27 448 r \$0-length;
#X obj 12 517 +;
#X obj 27 495 r \$0-progress;
#X obj 309 156 s \$0-numInstruments;
#X obj 438 156 s \$0-length;
#X obj 256 134 - 1;
#X obj 186 156 s \$0-maxInstrument;
#X obj 39 117 r \$0-maxInstrument;
#X obj 75 316 r \$0-maxInstrument;
#X obj 12 747 outlet;
#X obj 12 399 t f f;
#X obj 12 568 * 90;
#X text 45 569 <-- temp;
#X text 71 724 <-- trackIndex \, val out;
#X obj 12 699 float;
#X obj 12 593 t f f;
#X obj 39 423 s \$0-currentInstrument;
#X obj 39 672 r \$0-currentInstrument;
#X obj 39 621 s \$0-currentVal;
#X obj 57 699 r \$0-currentVal;
#X obj 12 723 pack f f;
#X msg 12 647 bang;
#X obj 309 39 table pattern;
#X obj 267 532 s pattern;
#X obj 12 544 tabread pattern;
#N canvas 174 282 450 300 counter 0;
#X obj 101 72 inlet;
#X obj 140 72 inlet;
#X obj 101 138 outlet;
#X obj 152 117 + 1;
#X obj 101 98 float;
#X connect 0 0 4 0;
#X connect 1 0 4 1;
#X connect 3 0 4 1;
#X connect 4 0 3 0;
#X connect 4 0 2 0;
#X restore 12 291 pd counter;
#X msg 163 263 0;
#X connect 0 0 1 0;
#X connect 1 0 27 0;
#X connect 1 0 25 0;
#X connect 1 1 26 0;
#X connect 2 0 4 0;
#X connect 3 0 5 0;
#X connect 4 0 6 0;
#X connect 4 0 7 0;
#X connect 5 0 4 0;
#X connect 5 1 4 1;
#X connect 6 0 45 0;
#X connect 7 0 45 0;
#X connect 8 0 14 0;
#X connect 9 0 15 0;
#X connect 10 0 47 0;
#X connect 12 0 11 0;
#X connect 13 0 12 1;
#X connect 14 0 9 0;
#X connect 14 1 12 0;
#X connect 15 0 10 0;
#X connect 16 0 47 1;
#X connect 17 0 18 0;
#X connect 19 0 48 0;
#X connect 20 0 10 1;
#X connect 21 0 23 0;
#X connect 22 0 21 1;
#X connect 23 0 46 0;
#X connect 24 0 23 1;
#X connect 27 0 28 0;
#X connect 29 0 9 1;
#X connect 30 0 17 1;
#X connect 32 0 21 0;
#X connect 32 1 38 0;
#X connect 33 0 37 0;
#X connect 36 0 42 0;
#X connect 37 0 43 0;
#X connect 37 1 40 0;
#X connect 39 0 36 1;
#X connect 41 0 42 1;
#X connect 42 0 31 0;
#X connect 43 0 36 0;
#X connect 46 0 33 0;
#X connect 47 0 17 0;
#X connect 47 0 32 0;
#X connect 48 0 47 1;
