#N canvas 226 80 1576 962 10;
#X obj 483 -33 r stopPlayback;
#X msg 683 -10 1;
#X msg 580 -10 0;
#X obj 626 15 r \$0-tempo;
#X obj 580 40 metro;
#X obj 683 -33 r startPlayback;
#X obj 580 -33 r pausePlayback;
#X obj 30 -75 bng 32 250 50 0 stopPlayback empty stop 17 7 0 10 -258113
-1 -1;
#X obj -21 -75 bng 32 250 50 0 pausePlayback empty pause 17 7 0 10
-162280 -1 -1;
#X obj -68 -75 bng 32 250 50 0 startPlayback empty start 17 7 0 10
-4034 -1 -1;
#X obj 554 234 select;
#X msg 483 -9 0;
#X obj 587 187 r \$0-length;
#X obj 587 159 s \$0-notifyProgress;
#X obj 580 15 change;
#X obj 600 -60 hsl 195 15 0 120 0 0 \$0-notifyProgress \$0-notifyProgress
empty -2 -8 0 10 -262144 -1 -1 1132 1;
#N canvas 174 282 450 300 counter 0;
#X obj 140 63 inlet;
#X obj 96 63 inlet;
#X obj 100 143 outlet;
#X obj 152 117 + 1;
#X obj 101 98 float;
#X connect 0 0 4 0;
#X connect 1 0 4 1;
#X connect 3 0 4 1;
#X connect 4 0 3 0;
#X connect 4 0 2 0;
#X restore 483 65 pd counter;
#X obj 75 -75 tgl 32 0 \$0-loopPlayback empty loop 17 7 0 10 -262144
-1 -1 0 1;
#X text 480 -59 Playback Controls;
#N canvas 775 143 751 551 init 0;
#X obj 40 65 bng 15 250 50 0 empty empty empty 17 7 0 10 -262144 -1
-1;
#X obj 37 31 loadbang;
#X obj 97 31 r reset;
#X obj 52 115 s \$0-tempo;
#X obj 122 114 s \$0-length;
#X obj 306 116 s \$0-melodyVolume;
#X msg 306 95 1;
#X obj 416 116 s \$0-loopPlayback;
#X msg 416 94 0;
#X msg -7 92 const 60;
#X obj -7 112 s seq;
#X obj 528 116 s \$0-numInstruments;
#X msg 528 93 1;
#X obj 200 119 s \$0-drumVolume;
#X msg 200 97 1;
#X msg 122 92 8;
#X obj -1 189 bng 15 250 50 0 empty empty empty 17 7 0 10 -262144 -1
-1;
#X obj -1 161 loadbang;
#X obj 59 161 r reset;
#X msg -1 214 1;
#X msg 105 214 0;
#X obj -1 241 s \$0-playbackOn;
#X obj 105 241 s \$0-writeControl;
#X msg 52 93 500;
#X obj 477 281 loadbang;
#X msg 477 305 sample snare.wav \, mode 1;
#X obj 477 329 s \$0-instrument3;
#X obj -2 280 loadbang;
#X msg -2 304 sample bass.wav \, mode 1;
#X obj 162 281 loadbang;
#X msg 162 305 sample hihat.wav \, mode 1;
#X obj 162 329 s \$0-instrument1;
#X obj -2 328 s \$0-instrument0;
#X obj 324 283 loadbang;
#X msg 324 305 sample ride.wav \, mode 1;
#X obj 324 329 s \$0-instrument2;
#X obj 640 281 loadbang;
#X msg 639 304 sample splash.wav \, mode 1;
#X obj 639 329 s \$0-instrument4;
#X obj 808 281 loadbang;
#X obj 808 329 s \$0-instrument5;
#X msg 808 305 sample a.wav \, mode 2;
#X connect 0 0 23 0;
#X connect 0 0 15 0;
#X connect 0 0 6 0;
#X connect 0 0 8 0;
#X connect 0 0 9 0;
#X connect 0 0 12 0;
#X connect 0 0 14 0;
#X connect 1 0 0 0;
#X connect 2 0 0 0;
#X connect 6 0 5 0;
#X connect 8 0 7 0;
#X connect 9 0 10 0;
#X connect 12 0 11 0;
#X connect 14 0 13 0;
#X connect 15 0 4 0;
#X connect 16 0 19 0;
#X connect 16 0 20 0;
#X connect 17 0 16 0;
#X connect 18 0 16 0;
#X connect 19 0 21 0;
#X connect 20 0 22 0;
#X connect 23 0 3 0;
#X connect 24 0 25 0;
#X connect 25 0 26 0;
#X connect 27 0 28 0;
#X connect 28 0 32 0;
#X connect 29 0 30 0;
#X connect 30 0 31 0;
#X connect 33 0 34 0;
#X connect 34 0 35 0;
#X connect 36 0 37 0;
#X connect 37 0 38 0;
#X connect 39 0 41 0;
#X connect 41 0 40 0;
#X restore 9 -5 pd init;
#X obj 587 210 - 1;
#X obj 269 393 polytracker;
#X obj 269 239 r \$0-notifyProgress;
#X obj 290 291 bng 15 250 50 0 empty empty empty 17 7 0 10 -262144
-1 -1;
#X obj 290 265 loadbang;
#X obj 312 289 r \$0-numInstruments;
#X obj 434 289 r \$0-length;
#X floatatom 312 330 5 0 0 0 - - -;
#X floatatom 434 330 5 0 0 0 - - -;
#X msg 312 351 numInstruments \$1;
#X msg 434 352 length \$1;
#N canvas 104 99 297 400 output~ 0;
#X obj 35 171 dac~;
#X obj 35 87 inlet~;
#X connect 1 0 0 0;
#X connect 1 0 0 1;
#X restore 384 769 pd output~;
#X obj 554 108 mod;
#X obj 554 288 float;
#X obj 581 263 r \$0-loopPlayback;
#X obj 554 338 s stopPlayback;
#X obj 555 133 t f f;
#X obj 573 82 r \$0-length;
#X obj 554 312 select 0;
#X obj 384 653 +~;
#X obj 384 745 *~;
#X obj 566 705 *~;
#X obj 566 732 writesf~;
#X obj 399 721 tgl 15 0 empty empty empty 17 7 0 10 -262144 -1 -1 1
1;
#X obj 581 680 tgl 15 0 empty empty empty 17 7 0 10 -262144 -1 -1 0
1;
#X obj 951 19 bng 15 250 50 0 empty empty empty 17 7 0 10 -262144 -1
-1;
#X obj 399 694 r \$0-playbackOn;
#X obj 581 656 r \$0-recordOn;
#X msg 1072 80 1;
#X obj 1072 108 s \$0-recordOn;
#X obj 970 108 s \$0-playbackOn;
#X obj 595 705 r \$0-writeControl;
#X obj 1053 243 s \$0-writeControl;
#X msg 1010 214 start;
#X obj 951 166 t b b b b;
#X msg 1380 105 stop;
#X obj 968 264 s startPlayback;
#X obj 1380 127 s \$0-writeControl;
#X text 1034 -20 record - make sure to turn off loop first;
#X obj 1353 -35 r stopPlayback;
#X obj 1368 -12 r \$0-recordOn;
#X obj 1353 12 f;
#X obj 1353 35 select 1;
#X obj 1353 83 t b b;
#X obj 1353 150 t b b;
#X msg 1353 172 1;
#X msg 1386 173 0;
#X obj 1446 102 bng 15 250 50 0 empty empty empty 17 7 0 10 -262144
-1 -1;
#X obj 1353 216 s \$0-playbackOn;
#X obj 1386 195 s \$0-recordOn;
#X msg 970 76 0;
#X obj 951 -21 r recordSong;
#X obj 1086 143 r \$0-saveFile;
#X msg 1053 214 open -wave \$1;
#X obj 1213 246 s \$0-saveFile;
#X obj 1053 190 symbol;
#X msg 1213 221 test.wav;
#X obj 1086 168 symbol;
#X obj 1213 198 loadbang;
#X obj 1333 268 s recordDone;
#X obj 1333 244 delay 1000;
#X obj 951 43 t b b b b;
#X obj 1168 81 s stopPlayback;
#X obj 17 534 r \$0-instrument0;
#X obj 183 534 r \$0-instrument1;
#X obj 345 534 r \$0-instrument2;
#X obj 510 534 r \$0-instrument3;
#X obj 781 556 instrument;
#X obj 673 533 r \$0-instrument4;
#X obj 837 534 r \$0-instrument5;
#X obj 337 456 route 0 1 2 3 4 5;
#X obj 126 534 f;
#X obj -40 534 f;
#X obj 288 534 f;
#X obj 453 534 f;
#X obj 616 533 f;
#X obj 780 533 f;
#X obj -40 556 instrument;
#X obj 288 555 instrument;
#X obj 126 556 instrument;
#X obj 453 556 instrument;
#X obj 616 555 instrument;
#X msg -27 476 1;
#X msg 835 480 1;
#X msg 869 480 1.5;
#X msg 904 480 2;
#X msg 803 478 0;
#X obj 1353 60 delay 750;
#X connect 0 0 11 0;
#X connect 0 0 2 0;
#X connect 1 0 14 0;
#X connect 2 0 14 0;
#X connect 3 0 4 1;
#X connect 4 0 16 1;
#X connect 5 0 1 0;
#X connect 6 0 2 0;
#X connect 10 0 33 0;
#X connect 11 0 16 0;
#X connect 12 0 20 0;
#X connect 14 0 4 0;
#X connect 16 0 32 0;
#X connect 20 0 10 1;
#X connect 21 0 90 0;
#X connect 22 0 21 0;
#X connect 23 0 27 0;
#X connect 23 0 28 0;
#X connect 24 0 23 0;
#X connect 25 0 27 0;
#X connect 26 0 28 0;
#X connect 27 0 29 0;
#X connect 28 0 30 0;
#X connect 29 0 21 1;
#X connect 30 0 21 1;
#X connect 32 0 36 0;
#X connect 33 0 38 0;
#X connect 34 0 33 1;
#X connect 36 0 10 0;
#X connect 36 1 13 0;
#X connect 37 0 32 1;
#X connect 38 0 35 0;
#X connect 39 0 40 0;
#X connect 39 0 41 0;
#X connect 40 0 31 0;
#X connect 41 0 42 0;
#X connect 43 0 40 1;
#X connect 44 0 41 1;
#X connect 45 0 81 0;
#X connect 46 0 43 0;
#X connect 47 0 44 0;
#X connect 48 0 49 0;
#X connect 51 0 42 0;
#X connect 53 0 52 0;
#X connect 54 1 56 0;
#X connect 54 2 53 0;
#X connect 54 3 75 0;
#X connect 55 0 57 0;
#X connect 59 0 61 0;
#X connect 60 0 61 1;
#X connect 61 0 62 0;
#X connect 62 0 107 0;
#X connect 63 0 64 0;
#X connect 63 1 55 0;
#X connect 63 1 67 0;
#X connect 64 0 65 0;
#X connect 64 1 66 0;
#X connect 65 0 68 0;
#X connect 65 0 80 0;
#X connect 66 0 69 0;
#X connect 70 0 50 0;
#X connect 71 0 45 0;
#X connect 72 0 77 0;
#X connect 73 0 52 0;
#X connect 75 0 73 0;
#X connect 76 0 74 0;
#X connect 77 0 75 1;
#X connect 78 0 76 0;
#X connect 80 0 79 0;
#X connect 81 0 54 0;
#X connect 81 1 70 0;
#X connect 81 2 48 0;
#X connect 81 3 82 0;
#X connect 83 0 97 1;
#X connect 84 0 99 1;
#X connect 85 0 98 1;
#X connect 86 0 100 1;
#X connect 87 0 39 0;
#X connect 88 0 101 1;
#X connect 89 0 87 1;
#X connect 90 0 92 0;
#X connect 90 1 91 0;
#X connect 90 2 93 0;
#X connect 90 3 94 0;
#X connect 90 4 95 0;
#X connect 90 5 96 0;
#X connect 91 0 99 0;
#X connect 92 0 97 0;
#X connect 93 0 98 0;
#X connect 94 0 100 0;
#X connect 95 0 101 0;
#X connect 96 0 87 0;
#X connect 97 0 39 0;
#X connect 98 0 39 0;
#X connect 99 0 39 0;
#X connect 100 0 39 0;
#X connect 101 0 39 0;
#X connect 102 0 92 0;
#X connect 103 0 96 0;
#X connect 104 0 96 0;
#X connect 105 0 96 0;
#X connect 106 0 96 0;
#X connect 107 0 63 0;
#X coords 0 0 1 1 85 60 0;
