#N canvas 13 29 1849 939 10;
#X obj 483 -33 r stopPlayback;
#X msg 683 -10 1;
#X msg 580 -10 0;
#X obj 626 15 r \$0-tempo;
#X obj 580 40 metro;
#X obj 683 -33 r startPlayback;
#X obj 580 -33 r pausePlayback;
#X obj 30 -75 bng 32 250 50 0 stopPlayback empty stop 17 7 0 10 -258113
-1 -1;
#X obj -21 -75 bng 32 250 50 0 pausePlayback empty pause 17 7 0 10
-162280 -1 -1;
#X obj -68 -75 bng 32 250 50 0 startPlayback empty start 17 7 0 10
-4034 -1 -1;
#X obj 554 234 select;
#X msg 483 -9 0;
#X obj 587 187 r \$0-length;
#X obj 587 159 s \$0-notifyProgress;
#X obj 580 15 change;
#X obj 600 -60 hsl 195 15 0 120 0 0 \$0-notifyProgress \$0-notifyProgress
empty -2 -8 0 10 -262144 -1 -1 0 1;
#N canvas 174 282 450 300 counter 0;
#X obj 140 63 inlet;
#X obj 96 63 inlet;
#X obj 100 143 outlet;
#X obj 152 117 + 1;
#X obj 101 98 float;
#X connect 0 0 4 0;
#X connect 1 0 4 1;
#X connect 3 0 4 1;
#X connect 4 0 3 0;
#X connect 4 0 2 0;
#X restore 483 65 pd counter;
#X obj 75 -75 tgl 32 0 \$0-loopPlayback empty loop 17 7 0 10 -262144
-1 -1 0 1;
#X text 480 -59 Playback Controls;
#N canvas 414 79 751 551 init 0;
#X obj 40 65 bng 15 250 50 0 empty empty empty 17 7 0 10 -262144 -1
-1;
#X obj 37 31 loadbang;
#X obj 97 31 r reset;
#X obj 58 113 s \$0-volume;
#X msg 58 91 100;
#X obj 134 113 s \$0-tempo;
#X obj 204 112 s \$0-length;
#X obj 279 112 s \$0-melodyVolume;
#X msg 279 90 1;
#X obj 389 112 s \$0-loopPlayback;
#X msg 389 90 0;
#X msg -7 92 const 60;
#X obj -7 112 s seq;
#X obj 501 112 s \$0-numInstruments;
#X msg 204 90 4;
#X msg 501 89 1;
#X msg 134 91 300;
#X connect 0 0 4 0;
#X connect 0 0 16 0;
#X connect 0 0 14 0;
#X connect 0 0 8 0;
#X connect 0 0 10 0;
#X connect 0 0 11 0;
#X connect 0 0 15 0;
#X connect 1 0 0 0;
#X connect 2 0 0 0;
#X connect 4 0 3 0;
#X connect 8 0 7 0;
#X connect 10 0 9 0;
#X connect 11 0 12 0;
#X connect 14 0 6 0;
#X connect 15 0 13 0;
#X connect 16 0 5 0;
#X restore 324 -41 pd init;
#X obj 587 210 - 1;
#X obj -44 156 polytracker;
#X obj -44 2 r \$0-notifyProgress;
#X obj -23 54 bng 15 250 50 0 empty empty empty 17 7 0 10 -262144 -1
-1;
#X obj -23 28 loadbang;
#X obj -1 52 r \$0-numInstruments;
#X obj 121 52 r \$0-length;
#X floatatom -1 93 5 0 0 0 - - -;
#X floatatom 121 93 5 0 0 0 - - -;
#X msg -1 114 numInstruments \$1;
#X msg 121 115 length \$1;
#X obj -44 196 unpack;
#X obj -11 220 s val;
#N canvas 104 99 297 400 output~ 0;
#X obj 35 171 dac~;
#X obj 35 87 inlet~;
#X connect 1 0 0 0;
#X restore -40 594 pd output~;
#X obj 554 108 mod;
#X obj 554 288 float;
#X obj 581 263 r \$0-loopPlayback;
#X obj 554 338 s stopPlayback;
#X obj 555 133 t f f;
#X obj 573 82 r \$0-length;
#X obj 554 312 select 0;
#X obj -40 556 simpleinstrument;
#X obj 53 508 loadbang;
#X obj -13 484 r val;
#X obj -40 506 float;
#X obj -40 532 filterzero;
#N canvas 104 99 297 400 output~ 0;
#X obj 35 171 dac~;
#X obj 35 87 inlet~;
#X connect 1 0 0 0;
#X restore 225 596 pd output~;
#X obj 225 558 simpleinstrument;
#X obj 318 510 loadbang;
#X obj 252 486 r val;
#X obj 225 508 float;
#X obj 225 534 filterzero;
#X obj 125 532 r \$0-soundfile0;
#X obj 390 534 r \$0-soundfile1;
#N canvas 104 99 297 400 output~ 0;
#X obj 35 171 dac~;
#X obj 35 87 inlet~;
#X connect 1 0 0 0;
#X restore 501 597 pd output~;
#X obj 501 559 simpleinstrument;
#X obj 594 511 loadbang;
#X obj 528 487 r val;
#X obj 501 509 float;
#X obj 501 535 filterzero;
#N canvas 104 99 297 400 output~ 0;
#X obj 35 171 dac~;
#X obj 35 87 inlet~;
#X connect 1 0 0 0;
#X restore 767 598 pd output~;
#X obj 767 560 simpleinstrument;
#X obj 860 512 loadbang;
#X obj 794 488 r val;
#X obj 767 510 float;
#X obj 767 536 filterzero;
#N canvas 104 99 297 400 output~ 0;
#X obj 35 171 dac~;
#X obj 35 87 inlet~;
#X connect 1 0 0 0;
#X restore 1028 598 pd output~;
#X obj 1028 560 simpleinstrument;
#X obj 1121 512 loadbang;
#X obj 1055 488 r val;
#X obj 1028 510 float;
#X obj 1028 536 filterzero;
#X msg 594 535 ride.wav;
#X msg 53 532 bass.wav;
#X msg 860 536 snare.wav;
#X msg 1120 536 splash.wav;
#X msg 318 533 hihat.wav;
#X obj 666 535 r \$0-soundfile2;
#X obj 932 536 r \$0-soundfile3;
#X obj 1193 536 r \$0-soundfile4;
#X obj -44 267 select 0 1 2 3 4 5;
#N canvas 104 99 297 400 output~ 0;
#X obj 35 171 dac~;
#X obj 35 87 inlet~;
#X connect 1 0 0 0;
#X restore 1299 606 pd output~;
#X obj 1392 511 loadbang;
#X obj 1326 487 r val;
#X obj 1299 509 float;
#X obj 1464 535 r \$0-soundfile5;
#X msg 1392 535 a.wav;
#X obj 1299 559 vocoder;
#X obj 1299 583 *~ 0.8;
#X connect 0 0 11 0;
#X connect 0 0 2 0;
#X connect 1 0 14 0;
#X connect 2 0 14 0;
#X connect 3 0 4 1;
#X connect 4 0 16 1;
#X connect 5 0 1 0;
#X connect 6 0 2 0;
#X connect 10 0 35 0;
#X connect 11 0 16 0;
#X connect 12 0 20 0;
#X connect 14 0 4 0;
#X connect 16 0 34 0;
#X connect 20 0 10 1;
#X connect 21 0 31 0;
#X connect 22 0 21 0;
#X connect 23 0 27 0;
#X connect 23 0 28 0;
#X connect 24 0 23 0;
#X connect 25 0 27 0;
#X connect 26 0 28 0;
#X connect 27 0 29 0;
#X connect 28 0 30 0;
#X connect 29 0 21 1;
#X connect 30 0 21 1;
#X connect 31 0 80 0;
#X connect 31 1 32 0;
#X connect 34 0 38 0;
#X connect 35 0 40 0;
#X connect 36 0 35 1;
#X connect 38 0 10 0;
#X connect 38 1 13 0;
#X connect 39 0 34 1;
#X connect 40 0 37 0;
#X connect 41 0 33 0;
#X connect 42 0 73 0;
#X connect 43 0 44 1;
#X connect 44 0 45 0;
#X connect 45 0 41 0;
#X connect 47 0 46 0;
#X connect 48 0 76 0;
#X connect 49 0 50 1;
#X connect 50 0 51 0;
#X connect 51 0 47 0;
#X connect 52 0 41 1;
#X connect 53 0 47 1;
#X connect 55 0 54 0;
#X connect 56 0 72 0;
#X connect 57 0 58 1;
#X connect 58 0 59 0;
#X connect 59 0 55 0;
#X connect 61 0 60 0;
#X connect 62 0 74 0;
#X connect 63 0 64 1;
#X connect 64 0 65 0;
#X connect 65 0 61 0;
#X connect 67 0 66 0;
#X connect 68 0 75 0;
#X connect 69 0 70 1;
#X connect 70 0 71 0;
#X connect 71 0 67 0;
#X connect 72 0 55 1;
#X connect 73 0 41 1;
#X connect 74 0 61 1;
#X connect 75 0 67 1;
#X connect 76 0 47 1;
#X connect 77 0 55 1;
#X connect 78 0 61 1;
#X connect 79 0 67 1;
#X connect 80 0 44 0;
#X connect 80 1 50 0;
#X connect 80 2 58 0;
#X connect 80 3 64 0;
#X connect 80 4 70 0;
#X connect 80 5 84 0;
#X connect 82 0 86 0;
#X connect 83 0 84 1;
#X connect 84 0 87 0;
#X connect 85 0 87 1;
#X connect 86 0 87 1;
#X connect 87 0 88 0;
#X connect 88 0 81 0;
#X coords 0 0 1 1 85 60 0;
