#N canvas 187 0 1038 1009 10;
#X obj 31 53 mtof;
#N canvas 269 455 450 300 print-array 0;
#X obj 62 126 t f f;
#X msg 58 207 \$1 \$2;
#X obj 58 185 pack f f;
#X obj 58 78 for 0 8;
#X floatatom 118 70 5 0 0 0 - - -;
#X obj 97 46 r \$0-table-size;
#X obj 90 162 tabread \$0-array;
#X obj 49 239 print $-array;
#X obj 58 11 r \$0-print-table;
#X connect 0 0 2 0;
#X connect 0 1 6 0;
#X connect 1 0 7 0;
#X connect 2 0 1 0;
#X connect 3 0 0 0;
#X connect 5 0 3 1;
#X connect 5 0 4 0;
#X connect 6 0 2 1;
#X connect 8 0 3 0;
#X restore 69 353 pd print-array;
#X obj 31 98 tabosc4~ \$0-array;
#N canvas 0 22 236 237 output~ 0;
#X obj 35 171 dac~;
#X obj 35 137 *~;
#X obj 88 115 line~;
#X obj 88 83 pack 0 30;
#X obj 35 87 inlet~;
#X obj 88 26 r \$0-volume;
#X obj 88 53 dbtorms;
#X connect 1 0 0 0;
#X connect 1 0 0 1;
#X connect 2 0 1 1;
#X connect 3 0 2 0;
#X connect 4 0 1 0;
#X connect 5 0 6 0;
#X connect 6 0 3 0;
#X restore 32 214 pd output~;
#X obj 32 -11 r \$0-pitch;
#X obj 66 313 table \$0-array 259;
#X obj 489 291 s \$0-pitch;
#X obj 96 159 *~;
#N canvas 1097 182 751 697 init 1;
#X obj 78 240 s \$0-table-size;
#X obj 70 209 + 3;
#X msg 37 150 256;
#X obj 410 421 s \$0-array;
#X msg 45 325 cosinesum \$1 0.2 -0.2 0.2 -0.2 0.2 -0.2 0.2 \, normalize
;
#X obj 39 65 bng 15 250 50 0 empty empty empty 17 7 0 10 -262144 -1
-1;
#X obj 37 31 loadbang;
#X obj 97 31 r reset;
#X obj 190 114 s \$0-volume;
#X msg 190 92 100;
#X obj 304 115 s \$0-tempo;
#X msg 382 326 sinesum \$1 1 0.5 0.33 0.25 \, normalize;
#X msg 629 329 sinesum \$1 1;
#X msg 307 89 200;
#X obj 548 191 r saw;
#X obj 498 190 r harm;
#X obj 589 192 r sine;
#X text 92 164;
#X connect 1 0 0 0;
#X connect 2 0 1 0;
#X connect 2 0 4 0;
#X connect 2 0 11 0;
#X connect 2 0 12 0;
#X connect 4 0 3 0;
#X connect 5 0 9 0;
#X connect 5 0 2 0;
#X connect 5 0 13 0;
#X connect 6 0 5 0;
#X connect 7 0 5 0;
#X connect 9 0 8 0;
#X connect 11 0 3 0;
#X connect 12 0 3 0;
#X connect 13 0 10 0;
#X connect 14 0 11 0;
#X connect 15 0 4 0;
#X connect 16 0 12 0;
#X restore 71 391 pd init;
#X obj 592 215 notein;
#X obj 597 275 tabwrite seq;
#X obj 662 219 hradio 15 1 0 20 empty empty empty 0 -8 0 10 -262144
-1 -1 19;
#X obj 496 174 t f f;
#X obj 496 210 tabread seq;
#X floatatom 495 249 5 0 0 0 - - -;
#X floatatom 386 153 5 0 0 0 - - -;
#X obj 475 119 + 1;
#X obj 397 115 float;
#X obj 168 71 vline~;
#X msg 133 27 1 80 \, 0 300 100;
#X obj 271 -19 r stopPlayback;
#X obj 366 292 s stopPlayback;
#X msg 504 24 1;
#X msg 459 22 0;
#X obj 599 22 r \$0-tempo;
#X obj 469 74 metro;
#X obj 554 -23 r startPlayback;
#X obj 442 -23 r pausePlayback;
#X obj 155 -89 bng 32 250 50 0 stopPlayback empty stop 17 7 0 10 -258113
-1 -1;
#X obj 93 -89 bng 32 250 50 0 pausePlayback empty pause 17 7 0 10 -162280
-1 -1;
#X obj 30 -89 bng 32 250 50 0 startPlayback empty start 17 7 0 10 -4034
-1 -1;
#X floatatom 332 215 5 0 0 0 - - -;
#X obj 376 252 select;
#X msg 403 61 0;
#X obj 266 181 r \$0-length;
#N canvas 0 0 450 300 (subpatch) 0;
#X array seq 120 float 2;
#X coords 0 140 120 0 200 140 1;
#X restore 434 346 graph;
#X connect 0 0 2 0;
#X connect 2 0 7 0;
#X connect 4 0 0 0;
#X connect 4 0 19 0;
#X connect 7 0 3 0;
#X connect 9 0 10 0;
#X connect 11 0 10 1;
#X connect 12 0 13 0;
#X connect 12 1 11 0;
#X connect 13 0 14 0;
#X connect 14 0 6 0;
#X connect 15 0 12 0;
#X connect 15 0 32 0;
#X connect 16 0 17 1;
#X connect 17 0 16 0;
#X connect 17 0 15 0;
#X connect 18 0 7 1;
#X connect 19 0 18 0;
#X connect 20 0 33 0;
#X connect 20 0 23 0;
#X connect 22 0 25 0;
#X connect 23 0 25 0;
#X connect 24 0 25 1;
#X connect 25 0 17 0;
#X connect 26 0 22 0;
#X connect 27 0 23 0;
#X connect 31 0 32 1;
#X connect 32 0 21 0;
#X connect 33 0 17 1;
#X connect 34 0 31 0;
