#N canvas 0 0 1366 696 10;
#N canvas 0 22 297 400 output~ 0;
#X obj 35 171 dac~;
#X obj 35 137 *~;
#X obj 88 115 line~;
#X obj 35 87 inlet~;
#X obj 88 26 r \$0-volume;
#X obj 88 53 dbtorms;
#X obj 88 82 pack 0 30;
#X obj 73 171 outlet~;
#X connect 1 0 0 0;
#X connect 1 0 0 1;
#X connect 1 0 7 0;
#X connect 2 0 1 1;
#X connect 3 0 1 0;
#X connect 4 0 5 0;
#X connect 5 0 6 0;
#X connect 6 0 2 0;
#X restore 248 244 pd output~;
#X obj 516 408 notein;
#X obj 489 534 tabwrite seq;
#X obj 296 80 tabread seq;
#X floatatom 296 103 5 0 0 0 - - -;
#X obj 483 -33 r stopPlayback;
#X obj 495 186 s stopPlayback;
#X msg 683 -10 1;
#X msg 580 -10 0;
#X obj 626 15 r \$0-tempo;
#X obj 580 40 metro;
#X obj 683 -33 r startPlayback;
#X obj 580 -33 r pausePlayback;
#X obj 30 -75 bng 32 250 50 0 stopPlayback empty stop 17 7 0 10 -258113
-1 -1;
#X obj -21 -75 bng 32 250 50 0 pausePlayback empty pause 17 7 0 10
-162280 -1 -1;
#X obj -68 -75 bng 32 250 50 0 startPlayback empty start 17 7 0 10
-4034 -1 -1;
#X obj 483 160 select;
#X msg 483 -9 0;
#X obj 516 113 r \$0-length;
#N canvas 0 22 450 300 (subpatch) 0;
#X array seq 120 float 2;
#X coords 0 140 120 0 200 140 1;
#X restore 178 400 graph;
#X obj 516 89 s \$0-notifyProgress;
#X obj 580 15 change;
#X obj 524 439 stripnote;
#X obj 296 57 r \$0-notifyProgress;
#X obj 181 541 hsl 195 15 0 120 0 0 \$0-notifyProgress \$0-notifyProgress
empty -2 -8 0 10 -262144 -1 -1 485 1;
#X msg 568 471 0;
#X obj 527 467 bang;
#X obj 606 499 r \$0-length;
#X obj 578 531 select;
#X obj 417 532 s \$0-pitch;
#N canvas 174 282 450 300 counter 0;
#X obj 140 63 inlet;
#X obj 96 63 inlet;
#X obj 100 143 outlet;
#X obj 152 117 + 1;
#X obj 101 98 float;
#X connect 0 0 4 0;
#X connect 1 0 4 1;
#X connect 3 0 4 1;
#X connect 4 0 3 0;
#X connect 4 0 2 0;
#X restore 483 65 pd counter;
#N canvas 174 282 450 300 counter 0;
#X obj 140 63 inlet;
#X obj 96 63 inlet;
#X obj 100 143 outlet;
#X obj 152 117 + 1;
#X obj 101 98 float;
#X connect 0 0 4 0;
#X connect 1 0 4 1;
#X connect 3 0 4 1;
#X connect 4 0 3 0;
#X connect 4 0 2 0;
#X restore 526 503 pd counter;
#N canvas 0 22 450 300 (subpatch) 0;
#X array dacOut 100 float 4;
#X coords 0 1 99 -1 256 140 1;
#X restore -87 400 graph;
#X obj 483 260 s startPlayback;
#X obj 483 235 select 1;
#X obj 483 209 float;
#X obj 592 186 r \$0-loopPlayback;
#X obj 75 -75 tgl 32 0 \$0-loopPlayback empty loop 17 7 0 10 -262144
-1 -1 1 1;
#X obj -106 -73 vsl 32 32 0 1 0 0 \$0-drumVolume \$0-drumVolume drums
0 -9 0 10 -262144 -1 -1 0 1;
#X text 480 -59 Playback Controls;
#X obj -145 -73 vsl 32 32 0 1 0 0 \$0-melodyVolume \$0-melodyVolume
melody 0 -9 0 10 -262144 -1 -1 3100 1;
#X text 491 382 Midi Recorder;
#X text 292 30 Melody Out;
#X obj 254 170 vocoder;
#X msg 293 147 a.wav;
#X obj 254 147 * 100;
#X obj 254 104 - 69;
#N canvas 396 273 751 693 init 0;
#X obj 40 65 bng 15 250 50 0 empty empty empty 17 7 0 10 -262144 -1
-1;
#X obj 37 31 loadbang;
#X obj 97 31 r reset;
#X obj 58 113 s \$0-volume;
#X msg 58 91 100;
#X obj 134 113 s \$0-tempo;
#X obj 204 112 s \$0-length;
#X msg 134 91 250;
#X msg 204 90 20;
#X obj 279 112 s \$0-melodyVolume;
#X msg 279 90 1;
#X obj 389 112 s \$0-loopPlayback;
#X msg 389 90 0;
#X msg -7 92 const 60;
#X obj -7 112 s seq;
#X connect 0 0 4 0;
#X connect 0 0 7 0;
#X connect 0 0 8 0;
#X connect 0 0 10 0;
#X connect 0 0 12 0;
#X connect 0 0 13 0;
#X connect 1 0 0 0;
#X connect 2 0 0 0;
#X connect 4 0 3 0;
#X connect 7 0 5 0;
#X connect 8 0 6 0;
#X connect 10 0 9 0;
#X connect 12 0 11 0;
#X connect 13 0 14 0;
#X restore 324 -41 pd init;
#X obj 293 126 loadbang;
#X obj 118 188 vocoder;
#X obj 178 125 loadbang;
#X msg 178 147 bell.aiff;
#X obj 115 166 + 1500;
#X obj 516 136 - 1;
#X connect 1 0 22 0;
#X connect 1 1 22 1;
#X connect 3 0 4 0;
#X connect 3 0 46 0;
#X connect 5 0 17 0;
#X connect 5 0 8 0;
#X connect 7 0 21 0;
#X connect 8 0 21 0;
#X connect 9 0 10 1;
#X connect 10 0 30 1;
#X connect 11 0 7 0;
#X connect 12 0 8 0;
#X connect 16 0 6 0;
#X connect 16 0 35 0;
#X connect 17 0 30 0;
#X connect 18 0 53 0;
#X connect 21 0 10 0;
#X connect 22 0 2 0;
#X connect 22 0 26 0;
#X connect 22 0 29 0;
#X connect 23 0 3 0;
#X connect 25 0 31 0;
#X connect 26 0 31 1;
#X connect 27 0 28 1;
#X connect 28 0 25 0;
#X connect 30 0 20 0;
#X connect 30 0 16 0;
#X connect 31 0 2 1;
#X connect 31 0 28 0;
#X connect 34 0 33 0;
#X connect 35 0 34 0;
#X connect 36 0 35 1;
#X connect 43 0 0 0;
#X connect 44 0 43 1;
#X connect 45 0 43 0;
#X connect 45 0 52 0;
#X connect 46 0 45 0;
#X connect 48 0 44 0;
#X connect 49 0 0 0;
#X connect 50 0 51 0;
#X connect 51 0 49 1;
#X connect 52 0 49 0;
#X connect 53 0 16 1;
#X coords 0 0 1 1 85 60 0;
