#N canvas 0 0 1366 696 10;
#X obj 516 408 notein;
#X obj 489 534 tabwrite seq;
#X obj 483 -33 r stopPlayback;
#X msg 683 -10 1;
#X msg 580 -10 0;
#X obj 626 15 r \$0-tempo;
#X obj 580 40 metro;
#X obj 683 -33 r startPlayback;
#X obj 580 -33 r pausePlayback;
#X obj 30 -75 bng 32 250 50 0 stopPlayback empty stop 17 7 0 10 -258113
-1 -1;
#X obj -21 -75 bng 32 250 50 0 pausePlayback empty pause 17 7 0 10
-162280 -1 -1;
#X obj -68 -75 bng 32 250 50 0 startPlayback empty start 17 7 0 10
-4034 -1 -1;
#X obj 554 234 select;
#X msg 483 -9 0;
#X obj 587 187 r \$0-length;
#X obj 587 159 s \$0-notifyProgress;
#X obj 580 15 change;
#X obj 524 439 stripnote;
#X obj 600 -60 hsl 195 15 0 120 0 0 \$0-notifyProgress \$0-notifyProgress
empty -2 -8 0 10 -262144 -1 -1 0 1;
#X msg 568 471 0;
#X obj 527 467 bang;
#X obj 606 499 r \$0-length;
#X obj 578 531 select;
#X obj 417 532 s \$0-pitch;
#N canvas 174 282 450 300 counter 0;
#X obj 140 63 inlet;
#X obj 96 63 inlet;
#X obj 100 143 outlet;
#X obj 152 117 + 1;
#X obj 101 98 float;
#X connect 0 0 4 0;
#X connect 1 0 4 1;
#X connect 3 0 4 1;
#X connect 4 0 3 0;
#X connect 4 0 2 0;
#X restore 483 65 pd counter;
#N canvas 174 282 450 300 counter 0;
#X obj 140 63 inlet;
#X obj 96 63 inlet;
#X obj 100 143 outlet;
#X obj 152 117 + 1;
#X obj 101 98 float;
#X connect 0 0 4 0;
#X connect 1 0 4 1;
#X connect 3 0 4 1;
#X connect 4 0 3 0;
#X connect 4 0 2 0;
#X restore 526 503 pd counter;
#X obj 75 -75 tgl 32 0 \$0-loopPlayback empty loop 17 7 0 10 -262144
-1 -1 0 1;
#X obj -106 -73 vsl 32 32 0 1 0 0 \$0-drumVolume \$0-drumVolume drums
0 -9 0 10 -262144 -1 -1 0 1;
#X text 480 -59 Playback Controls;
#X obj -145 -73 vsl 32 32 0 1 0 0 \$0-melodyVolume \$0-melodyVolume
melody 0 -9 0 10 -262144 -1 -1 3100 1;
#X text 491 382 Midi Recorder;
#N canvas 414 79 751 551 init 1;
#X obj 40 65 bng 15 250 50 0 empty empty empty 17 7 0 10 -262144 -1
-1;
#X obj 37 31 loadbang;
#X obj 97 31 r reset;
#X obj 58 113 s \$0-volume;
#X msg 58 91 100;
#X obj 134 113 s \$0-tempo;
#X obj 204 112 s \$0-length;
#X obj 279 112 s \$0-melodyVolume;
#X msg 279 90 1;
#X obj 389 112 s \$0-loopPlayback;
#X msg 389 90 0;
#X msg -7 92 const 60;
#X obj -7 112 s seq;
#X obj 501 112 s \$0-numInstruments;
#X msg 204 90 4;
#X msg 134 91 250;
#X msg 501 89 1;
#X connect 0 0 4 0;
#X connect 0 0 15 0;
#X connect 0 0 14 0;
#X connect 0 0 8 0;
#X connect 0 0 10 0;
#X connect 0 0 11 0;
#X connect 0 0 16 0;
#X connect 1 0 0 0;
#X connect 2 0 0 0;
#X connect 4 0 3 0;
#X connect 8 0 7 0;
#X connect 10 0 9 0;
#X connect 11 0 12 0;
#X connect 14 0 6 0;
#X connect 15 0 5 0;
#X connect 16 0 13 0;
#X restore 324 -41 pd init;
#X obj 587 210 - 1;
#X obj -76 148 polytracker;
#X obj -76 -6 r \$0-notifyProgress;
#X obj -55 46 bng 15 250 50 0 empty empty empty 17 7 0 10 -262144 -1
-1;
#X obj -55 20 loadbang;
#X obj -33 44 r \$0-numInstruments;
#X obj 89 44 r \$0-length;
#X floatatom -33 85 5 0 0 0 - - -;
#X floatatom 89 85 5 0 0 0 - - -;
#X msg -33 106 numInstruments \$1;
#X msg 89 107 length \$1;
#X obj -76 260 select 0 1;
#X obj -76 188 unpack;
#X obj -41 222 s val;
#X obj -49 288 r val;
#X obj 151 294 r val;
#X obj -76 313 float;
#X obj 124 319 float;
#X obj 124 363 vocoder;
#X msg 163 340 a.wav;
#X obj 163 319 loadbang;
#X obj -76 358 vocoder;
#X obj -37 313 loadbang;
#X msg -37 335 bell.aiff;
#N canvas 0 22 297 400 output~ 0;
#X obj 35 171 dac~;
#X obj 35 137 *~;
#X obj 88 115 line~;
#X obj 35 87 inlet~;
#X obj 88 26 r \$0-volume;
#X obj 88 53 dbtorms;
#X obj 88 82 pack 0 30;
#X obj 73 171 outlet~;
#X connect 1 0 0 0;
#X connect 1 0 0 1;
#X connect 1 0 7 0;
#X connect 2 0 1 1;
#X connect 3 0 1 0;
#X connect 4 0 5 0;
#X connect 5 0 6 0;
#X connect 6 0 2 0;
#X restore 1 398 pd output~;
#X obj 554 108 mod;
#X obj 554 288 float;
#X obj 581 263 r \$0-loopPlayback;
#X obj 554 338 s stopPlayback;
#X obj 555 133 t f f;
#X obj 573 82 r \$0-length;
#X obj 554 312 select 0;
#X obj 58 270 r \$0-soundfile;
#X connect 0 0 17 0;
#X connect 0 1 17 1;
#X connect 2 0 13 0;
#X connect 2 0 4 0;
#X connect 3 0 16 0;
#X connect 4 0 16 0;
#X connect 5 0 6 1;
#X connect 6 0 24 1;
#X connect 7 0 3 0;
#X connect 8 0 4 0;
#X connect 12 0 58 0;
#X connect 13 0 24 0;
#X connect 14 0 32 0;
#X connect 16 0 6 0;
#X connect 17 0 1 0;
#X connect 17 0 20 0;
#X connect 17 0 23 0;
#X connect 19 0 25 0;
#X connect 20 0 25 1;
#X connect 21 0 22 1;
#X connect 22 0 19 0;
#X connect 24 0 57 0;
#X connect 25 0 1 1;
#X connect 25 0 22 0;
#X connect 32 0 12 1;
#X connect 33 0 44 0;
#X connect 34 0 33 0;
#X connect 35 0 39 0;
#X connect 35 0 40 0;
#X connect 36 0 35 0;
#X connect 37 0 39 0;
#X connect 38 0 40 0;
#X connect 39 0 41 0;
#X connect 40 0 42 0;
#X connect 41 0 33 1;
#X connect 42 0 33 1;
#X connect 43 0 48 0;
#X connect 43 1 49 0;
#X connect 44 0 43 0;
#X connect 44 1 45 0;
#X connect 46 0 48 1;
#X connect 47 0 49 1;
#X connect 48 0 53 0;
#X connect 49 0 50 0;
#X connect 50 0 56 0;
#X connect 51 0 50 1;
#X connect 52 0 51 0;
#X connect 53 0 56 0;
#X connect 54 0 55 0;
#X connect 55 0 53 1;
#X connect 57 0 61 0;
#X connect 58 0 63 0;
#X connect 59 0 58 1;
#X connect 61 0 12 0;
#X connect 61 1 15 0;
#X connect 62 0 57 1;
#X connect 63 0 60 0;
#X connect 64 0 53 1;
#X coords 0 0 1 1 85 60 0;
