#N canvas 374 0 948 657 10;
#X obj 102 57 mtof;
#N canvas 269 455 450 300 print-array 0;
#X obj 62 126 t f f;
#X msg 58 207 \$1 \$2;
#X obj 58 185 pack f f;
#X obj 58 78 for 0 8;
#X floatatom 118 70 5 0 0 0 - - -;
#X obj 97 46 r \$0-table-size;
#X obj 90 162 tabread \$0-array;
#X obj 49 239 print $-array;
#X obj 58 11 r \$0-print-table;
#X connect 0 0 2 0;
#X connect 0 1 6 0;
#X connect 1 0 7 0;
#X connect 2 0 1 0;
#X connect 3 0 0 0;
#X connect 5 0 3 1;
#X connect 5 0 4 0;
#X connect 6 0 2 1;
#X connect 8 0 3 0;
#X restore 297 -39 pd print-array;
#X obj 24 83 tabosc4~ \$0-array;
#N canvas 0 22 297 400 output~ 0;
#X obj 35 171 dac~;
#X obj 35 137 *~;
#X obj 88 115 line~;
#X obj 35 87 inlet~;
#X obj 88 26 r \$0-volume;
#X obj 88 53 dbtorms;
#X obj 88 82 pack 0 30;
#X obj 73 171 outlet~;
#X connect 1 0 0 0;
#X connect 1 0 0 1;
#X connect 1 0 7 0;
#X connect 2 0 1 1;
#X connect 3 0 1 0;
#X connect 4 0 5 0;
#X connect 5 0 6 0;
#X connect 6 0 2 0;
#X restore 16 212 pd output~;
#X obj 135 32 r \$0-pitch;
#X obj 297 -63 table \$0-array 259;
#X obj 296 125 s \$0-pitch;
#X obj 120 108 *~;
#N canvas 359 84 751 693 init 0;
#X obj 48 199 s \$0-table-size;
#X obj 48 174 + 3;
#X msg 40 137 256;
#X obj 331 312 s \$0-array;
#X msg -10 254 cosinesum \$1 0.2 -0.2 0.2 -0.2 0.2 -0.2 0.2 \, normalize
;
#X obj 40 65 bng 15 250 50 0 empty empty empty 17 7 0 10 -262144 -1
-1;
#X obj 37 31 loadbang;
#X obj 97 31 r reset;
#X obj 58 113 s \$0-volume;
#X msg 58 91 100;
#X obj 134 113 s \$0-tempo;
#X msg 327 255 sinesum \$1 1 0.5 0.33 0.25 \, normalize;
#X msg 574 258 sinesum \$1 1;
#X obj 492 194 r saw;
#X obj 442 193 r harm;
#X obj 533 195 r sine;
#X obj 204 112 s \$0-length;
#X msg 134 91 250;
#X msg 204 90 20;
#X obj 279 112 s \$0-melodyVolume;
#X msg 279 90 1;
#X obj 389 112 s \$0-loopPlayback;
#X msg 389 90 0;
#X connect 1 0 0 0;
#X connect 2 0 1 0;
#X connect 2 0 4 0;
#X connect 2 0 11 0;
#X connect 2 0 12 0;
#X connect 4 0 3 0;
#X connect 5 0 9 0;
#X connect 5 0 2 0;
#X connect 5 0 17 0;
#X connect 5 0 18 0;
#X connect 5 0 20 0;
#X connect 5 0 22 0;
#X connect 6 0 5 0;
#X connect 7 0 5 0;
#X connect 9 0 8 0;
#X connect 11 0 3 0;
#X connect 12 0 3 0;
#X connect 13 0 11 0;
#X connect 14 0 4 0;
#X connect 15 0 12 0;
#X connect 17 0 10 0;
#X connect 18 0 16 0;
#X connect 20 0 19 0;
#X connect 22 0 21 0;
#X restore 297 -13 pd init;
#X obj 516 408 notein;
#X obj 489 534 tabwrite seq;
#X obj 296 80 tabread seq;
#X floatatom 296 103 5 0 0 0 - - -;
#X obj 135 83 vline~;
#X msg 135 57 1 80 \, 0 300 100;
#X obj 483 -33 r stopPlayback;
#X obj 495 163 s stopPlayback;
#X msg 683 -10 1;
#X msg 580 -10 0;
#X obj 626 15 r \$0-tempo;
#X obj 580 40 metro;
#X obj 683 -33 r startPlayback;
#X obj 580 -33 r pausePlayback;
#X obj 30 -75 bng 32 250 50 0 stopPlayback empty stop 17 7 0 10 -258113
-1 -1;
#X obj -21 -75 bng 32 250 50 0 pausePlayback empty pause 17 7 0 10
-162280 -1 -1;
#X obj -68 -75 bng 32 250 50 0 startPlayback empty start 17 7 0 10
-4034 -1 -1;
#X obj 483 137 select;
#X msg 483 -9 0;
#X obj 516 113 r \$0-length;
#N canvas 0 0 450 300 (subpatch) 0;
#X array seq 120 float 2;
#X coords 0 140 120 0 200 140 1;
#X restore 178 400 graph;
#X obj 516 89 s \$0-notifyProgress;
#X obj 580 15 change;
#X obj 524 439 stripnote;
#X obj 296 57 r \$0-notifyProgress;
#X obj 181 541 hsl 195 15 0 120 0 0 \$0-notifyProgress \$0-notifyProgress
empty -2 -8 0 10 -262144 -1 -1 808 1;
#X msg 568 471 0;
#X obj 527 467 bang;
#X obj 606 499 r \$0-length;
#X obj 578 531 select;
#X obj 417 532 s \$0-pitch;
#N canvas 174 282 450 300 counter 0;
#X obj 140 63 inlet;
#X obj 96 63 inlet;
#X obj 100 143 outlet;
#X obj 152 117 + 1;
#X obj 101 98 float;
#X connect 0 0 4 0;
#X connect 1 0 4 1;
#X connect 3 0 4 1;
#X connect 4 0 3 0;
#X connect 4 0 2 0;
#X restore 483 65 pd counter;
#N canvas 174 282 450 300 counter 0;
#X obj 140 63 inlet;
#X obj 96 63 inlet;
#X obj 100 143 outlet;
#X obj 152 117 + 1;
#X obj 101 98 float;
#X connect 0 0 4 0;
#X connect 1 0 4 1;
#X connect 3 0 4 1;
#X connect 4 0 3 0;
#X connect 4 0 2 0;
#X restore 526 503 pd counter;
#X msg 102 233 1;
#X obj 15 308 snapshot~;
#N canvas 0 0 450 300 (subpatch) 0;
#X array dacOut 100 float 4;
#X coords 0 1 99 -1 256 140 1;
#X restore -87 400 graph;
#N canvas 174 282 450 300 counter 0;
#X obj 140 63 inlet;
#X obj 96 63 inlet;
#X obj 100 143 outlet;
#X obj 152 117 + 1;
#X obj 101 98 float;
#X connect 0 0 4 0;
#X connect 1 0 4 1;
#X connect 3 0 4 1;
#X connect 4 0 3 0;
#X connect 4 0 2 0;
#X restore 102 284 pd counter;
#X obj 102 308 mod 100;
#X obj 102 259 metro 10;
#X obj -83 126 snare~;
#X obj -83 51 mod 4;
#X obj -83 76 select 0;
#X msg -83 100 1;
#X msg -38 100 0.3;
#X obj -83 27 r \$0-notifyProgress;
#X obj -82 174 *~ 1;
#X obj 483 237 s startPlayback;
#X obj 483 212 select 1;
#X obj 483 186 float;
#X obj 592 163 r \$0-loopPlayback;
#X obj 75 -75 tgl 32 0 \$0-loopPlayback empty loop 17 7 0 10 -262144
-1 -1 1 1;
#X obj 15 332 tabwrite dacOut;
#X obj -106 -73 vsl 32 32 0 1 0 0 \$0-drumVolume \$0-drumVolume drums
0 -9 0 10 -262144 -1 -1 3100 1;
#X obj -61 150 r \$0-drumVolume;
#X text -47 3 Drums;
#X obj 136 133 r \$0-melodyVolume;
#X obj 121 158 *~;
#X text 480 -59 Playback Controls;
#X obj -145 -73 vsl 32 32 0 1 0 0 \$0-melodyVolume \$0-melodyVolume
melody 0 -9 0 10 -262144 -1 -1 0 1;
#X text 130 7 Melody In;
#X text 491 382 Midi Recorder;
#X text 292 30 Melody Out;
#X connect 0 0 2 0;
#X connect 2 0 7 0;
#X connect 3 0 43 0;
#X connect 4 0 0 0;
#X connect 4 0 14 0;
#X connect 7 0 65 0;
#X connect 9 0 32 0;
#X connect 9 1 32 1;
#X connect 11 0 12 0;
#X connect 12 0 6 0;
#X connect 13 0 7 1;
#X connect 14 0 13 0;
#X connect 15 0 27 0;
#X connect 15 0 18 0;
#X connect 17 0 31 0;
#X connect 18 0 31 0;
#X connect 19 0 20 1;
#X connect 20 0 40 1;
#X connect 21 0 17 0;
#X connect 22 0 18 0;
#X connect 26 0 16 0;
#X connect 26 0 57 0;
#X connect 27 0 40 0;
#X connect 28 0 26 1;
#X connect 31 0 20 0;
#X connect 32 0 10 0;
#X connect 32 0 36 0;
#X connect 32 0 39 0;
#X connect 33 0 11 0;
#X connect 35 0 41 0;
#X connect 36 0 41 1;
#X connect 37 0 38 1;
#X connect 38 0 35 0;
#X connect 40 0 30 0;
#X connect 40 0 26 0;
#X connect 41 0 10 1;
#X connect 41 0 38 0;
#X connect 42 0 47 0;
#X connect 43 0 60 0;
#X connect 45 0 46 0;
#X connect 46 0 60 1;
#X connect 47 0 43 0;
#X connect 47 0 45 1;
#X connect 48 0 54 0;
#X connect 49 0 50 0;
#X connect 50 0 51 0;
#X connect 50 1 52 0;
#X connect 51 0 48 0;
#X connect 52 0 48 0;
#X connect 53 0 49 0;
#X connect 54 0 3 0;
#X connect 56 0 55 0;
#X connect 57 0 56 0;
#X connect 58 0 57 1;
#X connect 62 0 54 1;
#X connect 64 0 65 1;
#X connect 65 0 3 0;
#X coords 0 0 1 1 85 60 0;
