#N canvas 898 22 934 695 10;
#N canvas 0 22 450 300 (subpatch) 0;
#X array \$0-sample 109798 float 0;
#X coords 0 1 109797 -1 400 150 1;
#X restore 661 64 graph;
#X obj 462 117 unpack s f;
#X obj 462 227 soundfiler;
#X obj 462 143 t s b;
#X obj 518 142 symbol \$0-sample;
#X obj 462 178 pack s s;
#X msg 462 203 read -resize \$1 \$2;
#X obj 517 89 44100;
#X obj 462 90 t a b;
#X obj 472 251 s \$0-samplength;
#X obj 559 117 s \$0-insamprate;
#X obj 462 290 /;
#X obj 500 290 r \$0-insamprate;
#X obj 462 66 r \$0-read-sample;
#X obj 462 325 s \$0-playbackLength;
#X obj 320 42 inlet;
#X obj 320 65 s \$0-read-sample;
#X obj 163 138 inlet;
#X obj 164 309 tabread4~ \$0-sample;
#X obj 164 285 *~;
#X obj 179 262 r \$0-samplength;
#X obj 163 238 vline~;
#X msg 163 213 0 0 \, 1 \$1;
#X obj 163 189 f;
#X obj 260 138 r \$0-playbackLength;
#X obj 260 163 * 1000;
#X obj 165 418 outlet~;
#X obj 163 163 bng 15 250 50 0 empty empty empty 17 7 0 10 -262144
-1 -1;
#X obj 183 162 s \$0-pitch;
#X obj 180 333 r \$0-pitch;
#X msg 397 37 a.wav;
#X obj 165 392 soundtouch~;
#X connect 1 0 3 0;
#X connect 1 1 10 0;
#X connect 2 0 9 0;
#X connect 2 0 11 0;
#X connect 3 0 5 0;
#X connect 3 1 4 0;
#X connect 4 0 5 1;
#X connect 5 0 6 0;
#X connect 6 0 2 0;
#X connect 7 0 10 0;
#X connect 8 0 1 0;
#X connect 8 1 7 0;
#X connect 11 0 14 0;
#X connect 12 0 11 1;
#X connect 13 0 8 0;
#X connect 15 0 16 0;
#X connect 17 0 27 0;
#X connect 17 0 28 0;
#X connect 18 0 31 0;
#X connect 19 0 18 0;
#X connect 20 0 19 1;
#X connect 21 0 19 0;
#X connect 22 0 21 0;
#X connect 23 0 22 0;
#X connect 24 0 25 0;
#X connect 25 0 23 1;
#X connect 27 0 23 0;
#X connect 29 0 31 1;
#X connect 30 0 16 0;
#X connect 31 0 26 0;
