#N canvas 0 0 450 300 10;
#X obj 98 92 inlet;
#X obj 132 115 s val;
#X obj 98 116 > 0;
#X obj 98 183 f;
#X obj 113 161 r val;
#X obj 98 140 select 1;
#X obj 98 207 outlet;
#X connect 0 0 1 0;
#X connect 0 0 2 0;
#X connect 2 0 5 0;
#X connect 3 0 6 0;
#X connect 4 0 3 1;
#X connect 5 0 3 0;
