#N canvas 820 121 1091 802 10;
#X obj 84 35 inlet;
#X obj 133 501 r \$0-samplength;
#X obj 107 477 vline~;
#X msg 107 452 0 0 \, 1 \$1;
#X obj 107 428 f;
#X obj 158 375 r \$0-playbackLength;
#X obj 158 400 * 1000;
#X obj 107 782 outlet~;
#X obj 84 117 bng 15 250 50 0 empty empty empty 17 7 0 10 -262144 -1
-1;
#X obj 107 595 soundtouch~;
#X obj 111 94 s \$0-valueIn;
#X obj 84 139 float;
#X obj 111 116 r \$0-mode;
#X text 98 166 sound if mode 1 or 2;
#X obj 84 186 select 0 1 2;
#X obj 170 571 r \$0-pitch;
#X obj 107 269 float;
#X obj 233 240 float;
#X obj 134 240 r \$0-valueIn;
#X obj 260 213 r \$0-valueIn;
#X obj 107 327 t f f;
#X obj 252 341 s \$0-pitch;
#X obj 134 354 s \$0-vol;
#X obj 84 71 t f f;
#X obj 107 391 bng 15 250 50 0 empty empty empty 17 7 0 10 -262144
-1 -1;
#X obj 522 402 r \$0-mode;
#X obj 522 475 s \$0-vol;
#X msg 522 452 1;
#X msg 621 452 1;
#X obj 621 475 s \$0-pitch;
#X obj 522 427 select 1 2;
#X text 599 399 if mode 1 \, set the default volume to 1 if mode 2
\, set the default pitch to 1;
#X obj 522 516 loadbang;
#X obj 522 561 s \$0-masterVol;
#X msg 522 539 1;
#X text 619 515 set default master volume;
#X obj 524 591 loadbang;
#X obj 524 635 s \$0-mode;
#X msg 524 613 0;
#X text 620 593 set default mode;
#X obj 758 594 loadbang;
#X obj 723 646 s \$0-vol;
#X obj 779 646 s \$0-pitch;
#X msg 758 617 1;
#X text 818 595 set default values;
#X obj 477 47 inlet;
#X obj 461 100 s \$0-mode;
#X obj 618 99 s \$0-samplength;
#X obj 719 99 s \$0-playbackLength;
#X obj 526 100 s \$0-masterVol;
#X obj 145 525 r \$0-table;
#X obj 842 121 s \$0-table;
#X msg 842 98 set \$1-sample;
#X obj 107 548 tabread4~;
#X obj 107 524 *~ \$2;
#X obj 477 72 route mode volume samplength length parent kill;
#X obj 938 97 s \$0-kill;
#X obj 233 306 t f f f;
#X msg 372 387 1;
#X obj 372 409 s \$0-vol;
#X obj 327 341 select 0;
#X msg 327 387 0;
#X obj 134 617 r \$0-masterVol;
#X obj 107 757 *~;
#X obj 122 668 r \$0-vol;
#X obj 107 641 *~ \$2;
#X obj 201 669 r \$0-kill;
#X msg 122 691 \$1 0;
#X obj 122 729 vline~;
#X text 277 695 todo fade based on tempo??;
#X obj 26 541 loadbang;
#X msg 26 567 set 10;
#X msg 201 698 0 5;
#X connect 0 0 23 0;
#X connect 1 0 54 1;
#X connect 2 0 54 0;
#X connect 3 0 2 0;
#X connect 4 0 3 0;
#X connect 5 0 6 0;
#X connect 6 0 4 1;
#X connect 8 0 11 0;
#X connect 9 0 65 0;
#X connect 11 0 14 0;
#X connect 12 0 11 1;
#X connect 14 1 16 0;
#X connect 14 2 17 0;
#X connect 15 0 9 1;
#X connect 16 0 20 0;
#X connect 17 0 57 0;
#X connect 18 0 16 1;
#X connect 19 0 17 1;
#X connect 20 0 24 0;
#X connect 20 1 22 0;
#X connect 23 0 8 0;
#X connect 23 1 10 0;
#X connect 24 0 4 0;
#X connect 25 0 30 0;
#X connect 27 0 26 0;
#X connect 28 0 29 0;
#X connect 30 0 27 0;
#X connect 30 1 28 0;
#X connect 32 0 34 0;
#X connect 34 0 33 0;
#X connect 36 0 38 0;
#X connect 38 0 37 0;
#X connect 40 0 43 0;
#X connect 43 0 41 0;
#X connect 43 0 42 0;
#X connect 45 0 55 0;
#X connect 50 0 53 0;
#X connect 52 0 51 0;
#X connect 53 0 9 0;
#X connect 54 0 53 0;
#X connect 55 0 46 0;
#X connect 55 1 49 0;
#X connect 55 2 47 0;
#X connect 55 3 48 0;
#X connect 55 4 52 0;
#X connect 55 5 56 0;
#X connect 57 0 24 0;
#X connect 57 1 21 0;
#X connect 57 2 60 0;
#X connect 58 0 59 0;
#X connect 60 0 61 0;
#X connect 60 1 58 0;
#X connect 61 0 59 0;
#X connect 62 0 65 1;
#X connect 63 0 7 0;
#X connect 64 0 67 0;
#X connect 65 0 63 0;
#X connect 66 0 72 0;
#X connect 67 0 68 0;
#X connect 68 0 63 1;
#X connect 70 0 71 0;
#X connect 71 0 9 0;
#X connect 72 0 68 0;
