#N canvas 57 0 784 663 10;
#X obj 139 147 inlet;
#X obj 225 46 inlet;
#N canvas 0 22 450 300 (subpatch) 0;
#X array \$0-sample 155948 float 0;
#X coords 0 1 155947 -1 400 150 1;
#X restore 651 54 graph;
#X obj 452 107 unpack s f;
#X obj 452 217 soundfiler;
#X obj 452 133 t s b;
#X obj 508 132 symbol \$0-sample;
#X obj 452 168 pack s s;
#X msg 452 193 read -resize \$1 \$2;
#X obj 507 79 44100;
#X obj 452 80 t a b;
#X obj 462 241 s \$0-samplength;
#X obj 549 107 s \$0-insamprate;
#X obj 452 280 /;
#X obj 490 280 r \$0-insamprate;
#X obj 452 56 r \$0-read-sample;
#X obj 225 69 s \$0-read-sample;
#X obj 141 366 *~;
#X obj 140 318 tabread4~ \$0-sample;
#X msg 302 41 bell.aiff;
#X obj 452 315 s \$0-playbackLength;
#X obj 140 294 *~;
#X obj 155 271 r \$0-samplength;
#X obj 156 342 r \$0-volume;
#X obj 139 247 vline~;
#X msg 139 222 0 0 \, 1 \$1;
#X obj 139 198 f;
#X obj 236 147 r \$0-playbackLength;
#X obj 236 172 * 1000;
#X obj 159 172 s \$0-volume;
#X obj 142 391 outlet~;
#X obj 139 172 bng 15 250 50 0 empty empty empty 17 7 0 10 -262144
-1 -1;
#X connect 0 0 29 0;
#X connect 0 0 31 0;
#X connect 1 0 16 0;
#X connect 3 0 5 0;
#X connect 3 1 12 0;
#X connect 4 0 11 0;
#X connect 4 0 13 0;
#X connect 5 0 7 0;
#X connect 5 1 6 0;
#X connect 6 0 7 1;
#X connect 7 0 8 0;
#X connect 8 0 4 0;
#X connect 9 0 12 0;
#X connect 10 0 3 0;
#X connect 10 1 9 0;
#X connect 13 0 20 0;
#X connect 14 0 13 1;
#X connect 15 0 10 0;
#X connect 17 0 30 0;
#X connect 18 0 17 0;
#X connect 19 0 16 0;
#X connect 21 0 18 0;
#X connect 22 0 21 1;
#X connect 23 0 17 1;
#X connect 24 0 21 0;
#X connect 25 0 24 0;
#X connect 26 0 25 0;
#X connect 27 0 28 0;
#X connect 28 0 26 1;
#X connect 31 0 26 0;
