#N canvas 66 42 1797 963 10;
#X obj 483 -33 r stopPlayback;
#X msg 683 -10 1;
#X msg 580 -10 0;
#X obj 626 15 r \$0-tempo;
#X obj 580 40 metro;
#X obj 683 -33 r startPlayback;
#X obj 580 -33 r pausePlayback;
#X obj 30 -75 bng 32 250 50 0 stopPlayback empty stop 17 7 0 10 -258113
-1 -1;
#X obj -21 -75 bng 32 250 50 0 pausePlayback empty pause 17 7 0 10
-162280 -1 -1;
#X obj -68 -75 bng 32 250 50 0 startPlayback empty start 17 7 0 10
-4034 -1 -1;
#X obj 554 234 select;
#X msg 483 -9 0;
#X obj 587 187 r \$0-length;
#X obj 587 159 s \$0-notifyProgress;
#X obj 580 15 change;
#X obj 600 -60 hsl 195 15 0 120 0 0 \$0-notifyProgress \$0-notifyProgress
empty -2 -8 0 10 -262144 -1 -1 0 1;
#N canvas 174 282 450 300 counter 0;
#X obj 140 63 inlet;
#X obj 96 63 inlet;
#X obj 100 143 outlet;
#X obj 152 117 + 1;
#X obj 101 98 float;
#X connect 0 0 4 0;
#X connect 1 0 4 1;
#X connect 3 0 4 1;
#X connect 4 0 3 0;
#X connect 4 0 2 0;
#X restore 483 65 pd counter;
#X obj 75 -75 tgl 32 0 \$0-loopPlayback empty loop 17 7 0 10 -262144
-1 -1 0 1;
#X text 480 -59 Playback Controls;
#N canvas 415 79 751 551 init 0;
#X obj 40 65 bng 15 250 50 0 empty empty empty 17 7 0 10 -262144 -1
-1;
#X obj 37 31 loadbang;
#X obj 97 31 r reset;
#X obj 52 115 s \$0-tempo;
#X obj 122 114 s \$0-length;
#X obj 306 116 s \$0-melodyVolume;
#X msg 306 95 1;
#X obj 416 116 s \$0-loopPlayback;
#X msg 416 94 0;
#X msg -7 92 const 60;
#X obj -7 112 s seq;
#X obj 528 116 s \$0-numInstruments;
#X msg 528 93 1;
#X msg 52 93 300;
#X obj 200 119 s \$0-drumVolume;
#X msg 200 97 1;
#X msg 122 92 8;
#X obj -1 189 bng 15 250 50 0 empty empty empty 17 7 0 10 -262144 -1
-1;
#X obj -1 161 loadbang;
#X obj 59 161 r reset;
#X msg -1 214 1;
#X msg 105 214 0;
#X obj -1 241 s \$0-playbackOn;
#X obj 105 241 s \$0-writeControl;
#X connect 0 0 13 0;
#X connect 0 0 16 0;
#X connect 0 0 6 0;
#X connect 0 0 8 0;
#X connect 0 0 9 0;
#X connect 0 0 12 0;
#X connect 0 0 15 0;
#X connect 1 0 0 0;
#X connect 2 0 0 0;
#X connect 6 0 5 0;
#X connect 8 0 7 0;
#X connect 9 0 10 0;
#X connect 12 0 11 0;
#X connect 13 0 3 0;
#X connect 15 0 14 0;
#X connect 16 0 4 0;
#X connect 17 0 20 0;
#X connect 17 0 21 0;
#X connect 18 0 17 0;
#X connect 19 0 17 0;
#X connect 20 0 22 0;
#X connect 21 0 23 0;
#X restore 324 -41 pd init;
#X obj 587 210 - 1;
#X obj -44 156 polytracker;
#X obj -44 2 r \$0-notifyProgress;
#X obj -23 54 bng 15 250 50 0 empty empty empty 17 7 0 10 -262144 -1
-1;
#X obj -23 28 loadbang;
#X obj -1 52 r \$0-numInstruments;
#X obj 121 52 r \$0-length;
#X floatatom -1 93 5 0 0 0 - - -;
#X floatatom 121 93 5 0 0 0 - - -;
#X msg -1 114 numInstruments \$1;
#X msg 121 115 length \$1;
#X obj -44 196 unpack;
#X obj -11 220 s val;
#N canvas 104 99 297 400 output~ 1;
#X obj 35 171 dac~;
#X obj 35 87 inlet~;
#X connect 1 0 0 0;
#X connect 1 0 0 1;
#X restore 668 802 pd output~;
#X obj 554 108 mod;
#X obj 554 288 float;
#X obj 581 263 r \$0-loopPlayback;
#X obj 554 338 s stopPlayback;
#X obj 555 133 t f f;
#X obj 573 82 r \$0-length;
#X obj 554 312 select 0;
#X obj -40 556 simpleinstrument;
#X obj 53 508 loadbang;
#X obj -13 484 r val;
#X obj -40 506 float;
#X obj -40 532 filterzero;
#X obj 225 558 simpleinstrument;
#X obj 318 510 loadbang;
#X obj 252 486 r val;
#X obj 225 508 float;
#X obj 225 534 filterzero;
#X obj 125 532 r \$0-soundfile0;
#X obj 390 534 r \$0-soundfile1;
#X obj 501 559 simpleinstrument;
#X obj 594 511 loadbang;
#X obj 528 487 r val;
#X obj 501 509 float;
#X obj 501 535 filterzero;
#X obj 767 560 simpleinstrument;
#X obj 860 512 loadbang;
#X obj 794 488 r val;
#X obj 767 510 float;
#X obj 767 536 filterzero;
#X obj 1028 561 simpleinstrument;
#X obj 1121 512 loadbang;
#X obj 1055 488 r val;
#X obj 1028 510 float;
#X obj 1028 536 filterzero;
#X msg 594 535 ride.wav;
#X msg 53 532 bass.wav;
#X msg 860 536 snare.wav;
#X msg 1120 536 splash.wav;
#X msg 318 533 hihat.wav;
#X obj 666 535 r \$0-soundfile2;
#X obj 932 536 r \$0-soundfile3;
#X obj 1193 536 r \$0-soundfile4;
#X obj -43 265 select 0 1 2 3 4 5;
#X obj 1392 511 loadbang;
#X obj 1326 487 r val;
#X obj 1299 509 float;
#X obj 1464 535 r \$0-soundfile5;
#X msg 1392 535 a.wav;
#X obj 365 644 *~;
#X obj 398 645 r \$0-drumVolume;
#X obj 986 629 *~;
#X obj 1018 628 r \$0-melodyVolume;
#X obj 668 686 +~;
#X obj 668 778 *~;
#X obj 850 738 *~;
#X obj 850 765 writesf~;
#X obj 683 754 tgl 15 0 empty empty empty 17 7 0 10 -262144 -1 -1 1
1;
#X obj 865 713 tgl 15 0 empty empty empty 17 7 0 10 -262144 -1 -1 0
1;
#X obj 951 19 bng 15 250 50 0 empty empty empty 17 7 0 10 -262144 -1
-1;
#X obj 683 727 r \$0-playbackOn;
#X obj 865 689 r \$0-recordOn;
#X msg 1072 80 1;
#X obj 1072 108 s \$0-recordOn;
#X obj 970 108 s \$0-playbackOn;
#X obj 879 738 r \$0-writeControl;
#X obj 1053 243 s \$0-writeControl;
#X msg 1010 214 start;
#X obj 951 166 t b b b b;
#X msg 1380 105 stop;
#X obj 968 264 s startPlayback;
#X obj 1380 127 s \$0-writeControl;
#X text 1034 -20 record - make sure to turn off loop first;
#X obj 1353 -35 r stopPlayback;
#X obj 1368 -12 r \$0-recordOn;
#X obj 1353 12 f;
#X obj 1353 35 select 1;
#X obj 1353 83 t b b;
#X obj 1353 150 t b b;
#X msg 1353 172 1;
#X msg 1386 173 0;
#X obj 1446 102 bng 15 250 50 0 empty empty empty 17 7 0 10 -262144
-1 -1;
#X obj 1353 216 s \$0-playbackOn;
#X obj 1386 195 s \$0-recordOn;
#X msg 970 76 0;
#X obj 951 -21 r recordSong;
#X obj 1086 143 r \$0-saveFile;
#X msg 1053 214 open -wave \$1;
#X obj 1213 246 s \$0-saveFile;
#X obj 1053 190 symbol;
#X msg 1213 221 test.wav;
#X obj 1086 168 symbol;
#X obj 1213 198 loadbang;
#X obj 1333 268 s recordDone;
#X obj 1333 244 delay 1000;
#X obj 1353 60 delay 4000;
#X obj 951 43 t b b b b;
#X obj 1168 81 s stopPlayback;
#X obj 1299 558 complexinstrument;
#X connect 0 0 11 0;
#X connect 0 0 2 0;
#X connect 1 0 14 0;
#X connect 2 0 14 0;
#X connect 3 0 4 1;
#X connect 4 0 16 1;
#X connect 5 0 1 0;
#X connect 6 0 2 0;
#X connect 10 0 35 0;
#X connect 11 0 16 0;
#X connect 12 0 20 0;
#X connect 14 0 4 0;
#X connect 16 0 34 0;
#X connect 20 0 10 1;
#X connect 21 0 31 0;
#X connect 22 0 21 0;
#X connect 23 0 27 0;
#X connect 23 0 28 0;
#X connect 24 0 23 0;
#X connect 25 0 27 0;
#X connect 26 0 28 0;
#X connect 27 0 29 0;
#X connect 28 0 30 0;
#X connect 29 0 21 1;
#X connect 30 0 21 1;
#X connect 31 0 76 0;
#X connect 31 1 32 0;
#X connect 34 0 38 0;
#X connect 35 0 40 0;
#X connect 36 0 35 1;
#X connect 38 0 10 0;
#X connect 38 1 13 0;
#X connect 39 0 34 1;
#X connect 40 0 37 0;
#X connect 41 0 82 0;
#X connect 42 0 69 0;
#X connect 43 0 44 1;
#X connect 44 0 45 0;
#X connect 45 0 41 0;
#X connect 46 0 82 0;
#X connect 47 0 72 0;
#X connect 48 0 49 1;
#X connect 49 0 50 0;
#X connect 50 0 46 0;
#X connect 51 0 41 1;
#X connect 52 0 46 1;
#X connect 53 0 82 0;
#X connect 54 0 68 0;
#X connect 55 0 56 1;
#X connect 56 0 57 0;
#X connect 57 0 53 0;
#X connect 58 0 82 0;
#X connect 59 0 70 0;
#X connect 60 0 61 1;
#X connect 61 0 62 0;
#X connect 62 0 58 0;
#X connect 63 0 82 0;
#X connect 64 0 71 0;
#X connect 65 0 66 1;
#X connect 66 0 67 0;
#X connect 67 0 63 0;
#X connect 68 0 53 1;
#X connect 69 0 41 1;
#X connect 70 0 58 1;
#X connect 71 0 63 1;
#X connect 72 0 46 1;
#X connect 73 0 53 1;
#X connect 74 0 58 1;
#X connect 75 0 63 1;
#X connect 76 0 44 0;
#X connect 76 1 49 0;
#X connect 76 2 56 0;
#X connect 76 3 61 0;
#X connect 76 4 66 0;
#X connect 76 5 79 0;
#X connect 77 0 81 0;
#X connect 78 0 79 1;
#X connect 79 0 131 0;
#X connect 80 0 131 1;
#X connect 81 0 131 1;
#X connect 82 0 86 0;
#X connect 83 0 82 1;
#X connect 84 0 86 1;
#X connect 85 0 84 1;
#X connect 86 0 87 0;
#X connect 86 0 88 0;
#X connect 87 0 33 0;
#X connect 88 0 89 0;
#X connect 90 0 87 1;
#X connect 91 0 88 1;
#X connect 92 0 129 0;
#X connect 93 0 90 0;
#X connect 94 0 91 0;
#X connect 95 0 96 0;
#X connect 98 0 89 0;
#X connect 100 0 99 0;
#X connect 101 1 103 0;
#X connect 101 2 100 0;
#X connect 101 3 122 0;
#X connect 102 0 104 0;
#X connect 106 0 108 0;
#X connect 107 0 108 1;
#X connect 108 0 109 0;
#X connect 109 0 128 0;
#X connect 110 0 111 0;
#X connect 110 1 102 0;
#X connect 110 1 114 0;
#X connect 111 0 112 0;
#X connect 111 1 113 0;
#X connect 112 0 115 0;
#X connect 112 0 127 0;
#X connect 113 0 116 0;
#X connect 117 0 97 0;
#X connect 118 0 92 0;
#X connect 119 0 124 0;
#X connect 120 0 99 0;
#X connect 122 0 120 0;
#X connect 123 0 121 0;
#X connect 124 0 122 1;
#X connect 125 0 123 0;
#X connect 127 0 126 0;
#X connect 128 0 110 0;
#X connect 129 0 101 0;
#X connect 129 1 117 0;
#X connect 129 2 95 0;
#X connect 129 3 130 0;
#X connect 131 0 84 0;
#X coords 0 0 1 1 85 60 0;
