#N canvas 1234 472 450 300 10;
#X obj 112 35 inlet;
#X obj 115 210 outlet;
#X obj 174 210 outlet;
#X obj 174 179 spigot;
#X obj 115 179 spigot;
#X obj 177 134 tgl 15 0 empty empty empty 17 7 0 10 -262144 -1 -1 1
1;
#X obj 177 103 bng 15 250 50 0 empty empty empty 17 7 0 10 -262144
-1 -1;
#X obj 112 66 t f f;
#X obj 198 134 tgl 15 0 empty empty empty 17 7 0 10 -262144 -1 -1 0
1;
#X msg 223 64 1;
#X msg 280 64 0;
#X obj 223 39 loadbang;
#X obj 280 39 loadbang;
#X connect 0 0 7 0;
#X connect 3 0 2 0;
#X connect 4 0 1 0;
#X connect 5 0 4 1;
#X connect 6 0 5 0;
#X connect 6 0 8 0;
#X connect 7 0 3 0;
#X connect 7 0 4 0;
#X connect 7 1 6 0;
#X connect 8 0 3 1;
#X connect 9 0 5 0;
#X connect 10 0 8 0;
#X connect 11 0 9 0;
#X connect 12 0 10 0;
