#N canvas 658 80 708 688 12;
#X floatatom 143 228 3 0 0 0 - #0-speed-set -;
#X floatatom 22 229 7 0 0 0 - #0-location-set -;
#N canvas 426 122 1349 696 fft-analysis 0;
#X obj 51 477 *~;
#X obj 18 477 *~;
#X obj 18 499 -~;
#X obj 167 475 *~;
#X obj 136 475 *~;
#X obj 136 497 +~;
#X obj 109 193 *~;
#X obj 78 193 *~;
#X obj 50 193 *~;
#X obj 19 193 *~;
#X obj 19 218 +~;
#X obj 127 379 *~;
#X obj 21 744 *~;
#X obj 238 430 rfft~;
#X obj 108 161 rfft~;
#X obj 19 564 rifft~;
#X obj 21 770 outlet~;
#X obj 97 379 *~;
#X obj 97 401 +~;
#X obj 124 218 -~;
#X obj 18 431 *~;
#X obj 51 432 *~;
#X obj 426 644 block~;
#X obj 19 349 +~ 1e-015;
#X obj 19 598 *~;
#X obj 52 598 tabreceive~ \$0-hann;
#X obj 591 563 loadbang;
#X msg 426 619 set \$1 4;
#N canvas 169 270 1920 970 read-windows 0;
#X obj 18 693 *~;
#X obj 156 300 f;
#X obj 102 139 /;
#X obj 195 695 *~;
#X obj 156 255 bang~;
#X obj 17 551 line~;
#X obj 102 164 * 1000;
#X obj 198 302 +;
#X obj 288 272 *;
#X obj 183 470 +;
#X obj 143 446 t f f;
#X msg 17 523 \$1 \, \$2 \$3;
#X obj 17 496 pack 0 0 0;
#X obj 178 371 / 1000;
#X obj 156 394 *;
#X text 188 394 reading location (samples);
#X obj 51 597 / 4;
#X obj 288 245 * 0.01;
#X floatatom 340 498 7 0 0 0 - - -;
#X obj 340 474 *;
#X obj 499 387 * 0.01;
#X obj 501 408 + 69;
#X obj 502 429 mtof;
#X obj 502 451 / 440;
#X obj 375 474 t b f;
#X obj 19 719 outlet~;
#X obj 195 720 outlet~;
#X obj 218 664 tabreceive~ \$0-hann;
#X msg 803 409 0;
#X msg 768 532 set \$1;
#X text 411 498 stretched window size (samples);
#X msg 877 533 set \$1;
#X msg 826 289 set \$1;
#X obj 808 140 t b f;
#X obj 826 257 f;
#X obj 754 171 int;
#X obj 754 203 sel 0;
#X msg 813 174 1;
#X msg 813 197 0;
#X obj 754 228 del 300;
#X obj 17 637 tabread4~ \$0-sample;
#X obj 194 637 tabread4~ \$0-sample;
#X obj 178 347 r \$0-insamprate;
#X floatatom 111 187 5 0 0 0 - - -;
#X obj 102 115 t f b;
#X obj 142 139 samplerate~;
#X obj 102 208 / 4;
#X obj 193 420 / 2;
#X obj 156 420 -;
#X text 229 417 back up 1/2 window;
#X obj 16 597 -~;
#X text 43 6 Read two windows out of the recorded sample \, one 1/4
ahead of the other. The mid point of the front window is specified
by "location". If "speed" is nonzero \, "location" automatically precesses.
;
#X obj 528 720 * -0.5;
#X text 91 587 "back" window 1/4 cycle behind "front" one;
#X text 137 205 computation period (msec) for overlap of 4;
#X text 164 186 msec in a window;
#X obj 528 666 /;
#X obj 528 691 * 1000;
#X obj 528 642 t f b;
#X obj 568 666 samplerate~;
#X obj 528 619 f;
#X text 326 275 loop to precess the location according;
#X text 325 291 to the "speed" parameter.;
#X text 611 31 if location changes \, update number box;
#X text 610 50 in main window via "location-set" \, but;
#X text 613 69 taking care to limit frequency of updates.;
#X text 756 462 reflect control changes;
#X text 756 479 in main window.;
#X text 754 344 setting location by hand;
#X text 752 362 sets speed to zero.;
#X text 760 619 misc controls;
#X text 496 527 "rewind" control takes us;
#X text 499 545 to a location depending on;
#X text 499 564 stretched window size.;
#X obj 102 91 r \$0-window-size;
#X obj 877 507 r \$0-transpo;
#X obj 730 651 r \$0-no-detune;
#X obj 768 508 r \$0-speed;
#X obj 768 557 s \$0-speed-set;
#X obj 877 558 s \$0-transpo-set;
#X obj 823 317 s \$0-location-set;
#X obj 808 94 r \$0-location;
#X obj 817 116 r \$0-see-loc;
#X obj 803 386 r \$0-location;
#X obj 803 432 s \$0-speed;
#X obj 528 586 r \$0-rewind;
#X obj 499 365 r \$0-transpo;
#X obj 340 448 r \$0-window-size;
#X obj 233 306 s \$0-see-loc;
#X obj 288 224 r \$0-speed;
#X obj 178 277 r \$0-location;
#X obj 528 747 s \$0-location;
#X obj 838 724 s \$0-speed;
#X obj 889 643 r \$0-auto;
#X obj 921 724 s \$0-rewind;
#X msg 921 698 bang;
#X obj 889 671 t f f;
#X obj 730 711 s \$0-detune;
#X msg 730 684 0;
#X connect 0 0 25 0;
#X connect 1 0 7 0;
#X connect 1 0 14 0;
#X connect 2 0 6 0;
#X connect 3 0 26 0;
#X connect 4 0 1 0;
#X connect 5 0 50 0;
#X connect 5 0 41 0;
#X connect 6 0 43 0;
#X connect 6 0 46 0;
#X connect 7 0 1 1;
#X connect 7 0 88 0;
#X connect 8 0 7 1;
#X connect 9 0 12 1;
#X connect 10 0 12 0;
#X connect 10 1 9 0;
#X connect 11 0 5 0;
#X connect 12 0 11 0;
#X connect 13 0 14 1;
#X connect 14 0 48 0;
#X connect 16 0 50 1;
#X connect 17 0 8 0;
#X connect 18 0 16 0;
#X connect 18 0 9 1;
#X connect 18 0 47 0;
#X connect 18 0 60 1;
#X connect 19 0 18 0;
#X connect 20 0 21 0;
#X connect 21 0 22 0;
#X connect 22 0 23 0;
#X connect 23 0 24 0;
#X connect 24 0 19 0;
#X connect 24 1 19 1;
#X connect 27 0 3 1;
#X connect 27 0 0 1;
#X connect 28 0 84 0;
#X connect 29 0 78 0;
#X connect 31 0 79 0;
#X connect 32 0 80 0;
#X connect 33 0 35 0;
#X connect 33 1 34 1;
#X connect 34 0 32 0;
#X connect 35 0 36 0;
#X connect 36 0 37 0;
#X connect 36 0 39 0;
#X connect 37 0 35 1;
#X connect 38 0 35 1;
#X connect 39 0 38 0;
#X connect 39 0 34 0;
#X connect 40 0 0 0;
#X connect 41 0 3 0;
#X connect 42 0 13 0;
#X connect 44 0 2 0;
#X connect 44 1 45 0;
#X connect 45 0 2 1;
#X connect 46 0 12 2;
#X connect 46 0 8 1;
#X connect 47 0 48 1;
#X connect 48 0 10 0;
#X connect 50 0 40 0;
#X connect 52 0 91 0;
#X connect 56 0 57 0;
#X connect 57 0 52 0;
#X connect 58 0 56 0;
#X connect 58 1 59 0;
#X connect 59 0 56 1;
#X connect 60 0 58 0;
#X connect 74 0 44 0;
#X connect 75 0 31 0;
#X connect 76 0 98 0;
#X connect 77 0 29 0;
#X connect 81 0 33 0;
#X connect 82 0 33 0;
#X connect 83 0 28 0;
#X connect 85 0 60 0;
#X connect 86 0 20 0;
#X connect 87 0 19 0;
#X connect 89 0 17 0;
#X connect 90 0 1 1;
#X connect 93 0 96 0;
#X connect 95 0 94 0;
#X connect 96 0 92 0;
#X connect 96 1 95 0;
#X connect 98 0 97 0;
#X restore 109 133 pd read-windows;
#X text 272 5 recall previous output amplitude. Its phase will be added
to the phase difference we measure from two windows in the the recorded
sound.;
#X obj 121 69 *~;
#X obj 89 69 *~;
#X obj 89 91 +~;
#X obj 159 94 q8_rsqrt~;
#X obj 159 71 +~ 1e-020;
#X obj 73 119 *~;
#X obj 19 118 *~;
#X obj 181 290 r lock;
#X obj 29 245 lrshift~ 1;
#X obj 24 269 lrshift~ -1;
#X obj 141 245 lrshift~ 1;
#X obj 133 269 lrshift~ -1;
#X obj 35 300 *~;
#X obj 159 312 *~;
#X obj 19 325 +~;
#X obj 125 331 +~;
#X text 247 66 divide by the magnitude to make a unit-magnitude complex
amplitude (phase only). The 1e-020 is to prevent overflows. q8_rsqrt~
is reciprocal square root.;
#X text 247 165 Take FT of the window in back. Multiply its conjugate
by the normalized previous output. The result has the magnitude of
the input sound and phase (previous output phase) minus (back window
phase).;
#X text 249 370 Normalize again \, this time taking care to salt each
channel with 1e-015 so that we get a unit complex number even if everything
was zero heretofore.;
#X text 290 427 Now take the FT of the forward window and multiply
it by the unit complex number from above. The magnitude will be that
of the forward window and the phase will be the previous output phase
plus the phase difference between the two analysis windows -- except
that if "lock" is on \, they will be modified to agree progressively
better with the inter-channel phase relationships of the input.;
#X text 249 242 If "lock" is on \, encourage neighboring channels to
stay in phase by adding the two neighboring complex amplitudes. The
result will tend toward the channel with the strongest amplitude. If
the phase relationships between channels in the output and those in
the input are in parallel \, then neighboring channels of the quotient
will all have the same phase and this will not change any phases. (lrshift
shifts the signal to the left or right depending on its argument.)
;
#X text 387 560 'set' message to block;
#X text 390 577 allows variable size;
#X text 259 126 Read two windows \, one 1/4 length behind the other
\, of the input sound \, with Hann window function (see inside).;
#X obj 127 712 /;
#X msg 127 686 2;
#X obj 166 685 * 3;
#X obj 127 659 t f f;
#X text 200 684 expr 2/(3*$f1);
#X obj 20 8 tabreceive~ \$0-prev-real;
#X obj 71 30 tabreceive~ \$0-prev-imag;
#X obj 137 543 tabsend~ \$0-prev-imag;
#X obj 136 567 tabsend~ \$0-prev-real;
#X obj 127 622 r \$0-window-size;
#X obj 426 595 r \$0-window-size;
#X obj 591 588 f \$0;
#X obj 95 425 rsqrt~;
#X msg 591 614 \; pd dsp 1 \; \$1-window-size 512 \; \$1-transpo 0
\; \$1-rewind bang \;;
#X connect 0 0 2 1;
#X connect 1 0 2 0;
#X connect 2 0 15 0;
#X connect 2 0 62 0;
#X connect 3 0 5 1;
#X connect 4 0 5 0;
#X connect 5 0 15 1;
#X connect 5 0 61 0;
#X connect 6 0 19 1;
#X connect 7 0 19 0;
#X connect 8 0 10 1;
#X connect 9 0 10 0;
#X connect 10 0 39 0;
#X connect 10 0 38 0;
#X connect 10 0 44 0;
#X connect 11 0 18 1;
#X connect 12 0 16 0;
#X connect 13 0 1 1;
#X connect 13 0 3 1;
#X connect 13 1 0 1;
#X connect 13 1 4 1;
#X connect 14 0 9 1;
#X connect 14 0 7 1;
#X connect 14 1 6 1;
#X connect 14 1 8 1;
#X connect 15 0 24 0;
#X connect 17 0 18 0;
#X connect 18 0 66 0;
#X connect 19 0 40 0;
#X connect 19 0 41 0;
#X connect 19 0 45 0;
#X connect 20 0 1 0;
#X connect 20 0 4 0;
#X connect 21 0 0 0;
#X connect 21 0 3 0;
#X connect 23 0 17 1;
#X connect 23 0 17 0;
#X connect 23 0 20 0;
#X connect 24 0 12 0;
#X connect 25 0 24 1;
#X connect 26 0 65 0;
#X connect 27 0 22 0;
#X connect 28 0 14 0;
#X connect 28 1 13 0;
#X connect 30 0 32 1;
#X connect 31 0 32 0;
#X connect 32 0 34 0;
#X connect 33 0 35 1;
#X connect 33 0 36 1;
#X connect 34 0 33 0;
#X connect 35 0 8 0;
#X connect 35 0 7 0;
#X connect 36 0 9 0;
#X connect 36 0 6 0;
#X connect 37 0 42 1;
#X connect 37 0 43 1;
#X connect 38 0 42 0;
#X connect 39 0 42 0;
#X connect 40 0 43 0;
#X connect 41 0 43 0;
#X connect 42 0 44 1;
#X connect 43 0 45 1;
#X connect 44 0 23 0;
#X connect 45 0 11 0;
#X connect 45 0 11 1;
#X connect 45 0 21 0;
#X connect 54 0 12 1;
#X connect 55 0 54 0;
#X connect 56 0 54 1;
#X connect 57 0 55 0;
#X connect 57 1 56 0;
#X connect 59 0 31 1;
#X connect 59 0 31 0;
#X connect 59 0 36 0;
#X connect 60 0 30 1;
#X connect 60 0 30 0;
#X connect 60 0 35 0;
#X connect 63 0 57 0;
#X connect 64 0 27 0;
#X connect 65 0 67 0;
#X connect 66 0 21 1;
#X connect 66 0 20 1;
#X restore 170 418 pd fft-analysis;
#N canvas 260 22 647 730 phase-tables 0;
#N canvas 0 22 450 300 (subpatch) 0;
#X array \$0-prev-imag 4096 float 0;
#X coords 0 1000 4096 -1000 400 300 1;
#X restore 169 326 graph;
#N canvas 0 22 450 300 (subpatch) 0;
#X array \$0-prev-real 4096 float 0;
#X coords 0 500 4096 -500 400 300 1;
#X restore 170 17 graph;
#X restore 316 488 pd phase-tables;
#X text 140 209 hundredths;
#X text 485 217 in cents;
#X text 357 253 normal;
#N canvas 0 110 565 454 hann-window 0;
#N canvas 0 22 450 300 (subpatch) 0;
#X array \$0-hann 512 float 0;
#X coords 0 1 511 0 300 100 1;
#X restore 82 311 graph;
#X obj 378 165 osc~;
#X obj 378 190 *~ -0.5;
#X obj 378 214 +~ 0.5;
#X obj 331 247 tabwrite~ \$0-hann;
#X obj 38 173 /;
#X obj 127 142 samplerate~;
#X obj 177 204 swap;
#X obj 177 228 /;
#X obj 49 201 * 1000;
#X obj 38 115 t f b f;
#X msg 173 92 resize \$1;
#X obj 173 116 s \$0-hann;
#X msg 382 130 0;
#X obj 330 131 t f b;
#X text 15 8 calculate Hann window table (variable window size) and
constants window-hz (fundamental frequency of analysis) \, window-sec
and window-msec (analysis window size in seconds and msec).;
#X obj 177 252 s \$0-window-hz;
#X obj 330 105 r \$0-window-hz;
#X obj 49 228 s \$0-window-msec;
#X obj 38 251 s \$0-window-sec;
#X obj 37 88 r \$0-window-size;
#X connect 1 0 2 0;
#X connect 2 0 3 0;
#X connect 3 0 4 0;
#X connect 5 0 9 0;
#X connect 5 0 19 0;
#X connect 6 0 5 1;
#X connect 6 0 7 1;
#X connect 7 0 8 0;
#X connect 7 1 8 1;
#X connect 8 0 16 0;
#X connect 9 0 18 0;
#X connect 10 0 5 0;
#X connect 10 0 7 0;
#X connect 10 1 6 0;
#X connect 10 2 11 0;
#X connect 11 0 12 0;
#X connect 13 0 1 1;
#X connect 14 0 1 0;
#X connect 14 1 4 0;
#X connect 14 1 13 0;
#X connect 17 0 14 0;
#X connect 20 0 10 0;
#X restore 316 512 pd hann-window;
#N canvas 566 47 924 607 insample 0;
#N canvas 0 22 450 300 (subpatch) 0;
#X array \$0-sample 155948 float 0;
#X coords 0 1 155947 -1 400 150 1;
#X restore 281 135 graph;
#X obj 28 184 unpack s f;
#X obj 28 294 soundfiler;
#X obj 28 210 t s b;
#X obj 84 209 symbol \$0-sample;
#X obj 28 245 pack s s;
#X msg 28 270 read -resize \$1 \$2;
#X obj 83 156 44100;
#X obj 28 157 t a b;
#X obj 38 318 s \$0-samplength;
#X obj 125 184 s \$0-insamprate;
#X obj 28 357 /;
#X obj 28 381 * 1000;
#X obj 28 404 s \$0-samp-msec;
#X obj 66 357 r \$0-insamprate;
#X obj 276 20 inlet;
#X obj 276 42 openpanel;
#X obj 33 73 hip~ 5;
#X obj 33 49 adc~ 1;
#X obj 33 12 inlet;
#X obj 95 49 samplerate~;
#X obj 33 96 tabwrite~ \$0-sample;
#X obj 95 73 s \$0-insamprate;
#X obj 28 133 r \$0-read-sample;
#X obj 276 67 s \$0-read-sample;
#X connect 1 0 3 0;
#X connect 1 1 10 0;
#X connect 2 0 9 0;
#X connect 2 0 11 0;
#X connect 3 0 5 0;
#X connect 3 1 4 0;
#X connect 4 0 5 1;
#X connect 5 0 6 0;
#X connect 6 0 2 0;
#X connect 7 0 10 0;
#X connect 8 0 1 0;
#X connect 8 1 7 0;
#X connect 11 0 12 0;
#X connect 12 0 13 0;
#X connect 14 0 11 1;
#X connect 15 0 16 0;
#X connect 16 0 24 0;
#X connect 17 0 21 0;
#X connect 18 0 17 0;
#X connect 19 0 20 0;
#X connect 19 0 18 0;
#X connect 20 0 22 0;
#X connect 23 0 8 0;
#X restore 317 464 pd insample;
#X floatatom 428 464 5 0 0 0 - #0-samp-msec -;
#X obj 500 306 tgl 15 0 empty empty empty 0 -6 0 8 -262144 -1 -1 0
1;
#X obj 181 302 bng 15 250 50 0 empty empty empty 0 -6 0 8 -262144 -1
-1;
#X msg 408 251 200;
#X msg 313 252 100;
#X msg 408 276 20;
#X text 449 250 contract;
#X text 453 276 expand;
#X text 486 201 detune;
#X text 31 175 location;
#X text 28 191 (stops;
#X text 33 206 motion);
#X text 141 193 motion in;
#X text 480 463 length \, msec;
#X floatatom 589 333 5 0 0 0 - #0-window-size -;
#X text 589 249 window size \,;
#X text 589 264 samples;
#X text 630 281 <- set;
#X text 35 156 ------- location controls -------;
#X text 632 333 (check);
#X obj 441 439 bng 15 250 50 0 empty empty empty 0 -6 0 8 -262144 -1
-1;
#X text 372 437 file ->;
#X obj 364 109 inlet;
#X obj 361 170 t b f;
#X obj 453 126 inlet;
#X obj 171 452 outlet~;
#X text 296 300 todo: variable length;
#X text 378 378 todo: record;
#X obj 453 153 s \$0-read-sample;
#X obj 393 210 s \$0-transpo;
#X obj 361 324 s \$0-auto;
#X obj 143 252 s \$0-speed;
#X obj 181 324 s \$0-rewind;
#X obj 31 252 s \$0-location;
#X obj 589 309 s \$0-window-size;
#X obj 500 326 s \$0-lock;
#X msg 589 282 512;
#X msg 265 281 0;
#X connect 0 0 40 0;
#X connect 1 0 42 0;
#X connect 2 0 34 0;
#X connect 10 0 44 0;
#X connect 11 0 41 0;
#X connect 12 0 39 0;
#X connect 13 0 39 0;
#X connect 14 0 39 0;
#X connect 29 0 8 1;
#X connect 31 0 32 0;
#X connect 32 0 13 0;
#X connect 32 1 38 0;
#X connect 33 0 37 0;
#X connect 45 0 43 0;
#X connect 46 0 39 0;
